<svg width="24" height="24" viewBox="0 0 24 24" fill="none" xmlns="http://www.w3.org/2000/svg">
<path d="M19.3846 12.9232H11.0769V4.61546C11.0769 4.37064 10.9797 4.13586 10.8066 3.96275C10.6335 3.78964 10.3987 3.69238 10.1538 3.69238C8.14561 3.69238 6.18247 4.2879 4.51267 5.40361C2.84288 6.51933 1.54144 8.10515 0.77292 9.96052C0.00439954 11.8159 -0.19668 13.8575 0.195108 15.8271C0.586896 17.7968 1.55396 19.606 2.974 21.0261C4.39404 22.4461 6.20328 23.4132 8.17293 23.805C10.1426 24.1968 12.1842 23.9957 14.0396 23.2272C15.8949 22.4586 17.4807 21.1572 18.5965 19.4874C19.7122 17.8176 20.3077 15.8545 20.3077 13.8462C20.3077 13.6014 20.2104 13.3666 20.0373 13.1935C19.8642 13.0204 19.6294 12.9232 19.3846 12.9232ZM10.1538 22.1539C8.03645 22.1452 6.00226 21.3284 4.4669 19.8703C2.93154 18.4122 2.01089 16.4228 1.89305 14.3087C1.7752 12.1945 2.46906 10.1152 3.83286 8.49544C5.19665 6.87572 7.12745 5.83786 9.23077 5.59392V13.8462C9.23077 14.091 9.32802 14.3258 9.50113 14.4989C9.67424 14.6721 9.90903 14.7693 10.1538 14.7693H18.4062C18.1792 16.7995 17.2121 18.6749 15.6898 20.0371C14.1675 21.3993 12.1967 22.1529 10.1538 22.1539Z" fill="#D4D4D4"/>
<path d="M13.8459 0C13.6011 0 13.3663 0.0972526 13.1932 0.270363C13.0201 0.443474 12.9229 0.678262 12.9229 0.923077V10.1538C12.9229 10.3987 13.0201 10.6334 13.1932 10.8066C13.3663 10.9797 13.6011 11.0769 13.8459 11.0769H23.0767C23.3215 11.0769 23.5563 10.9797 23.7294 10.8066C23.9025 10.6334 23.9998 10.3987 23.9998 10.1538C23.9998 8.82042 23.7371 7.50006 23.2269 6.26814C22.7166 5.03621 21.9687 3.91686 21.0258 2.97399C20.0829 2.03112 18.9636 1.28319 17.7316 0.772915C16.4997 0.262637 15.1794 0 13.8459 0ZM22.0982 9.23077H14.769V1.90154C16.6405 2.11159 18.3851 2.95129 19.7168 4.28297C21.0485 5.61464 21.8882 7.35925 22.0982 9.23077Z" fill="#D4D4D4"/>
</svg>
