<svg width="26" height="20" viewBox="0 0 26 20" fill="none" xmlns="http://www.w3.org/2000/svg">
<path d="M24.8199 4.76743C24.2568 2.48677 22.5955 0.797387 20.3712 0.234261C20.2304 0.206104 20.0896 0.177948 19.977 0.149792C18.1187 -0.21624 16.2322 0.177948 14.6836 1.24789C13.7545 1.83917 13.0224 2.62755 12.4874 3.52855C11.9525 2.62755 11.2204 1.83917 10.3194 1.21973C8.74264 0.149792 6.85616 -0.216241 5.026 0.121635C4.88522 0.149792 4.74444 0.177948 4.63181 0.206104C2.40746 0.769231 0.746242 2.45861 0.183116 4.73927C-0.380011 7.04809 0.38021 9.46954 2.1259 11.0463L11.9243 19.7747C12.0932 19.9155 12.2903 20 12.4874 20C12.6845 20 12.8816 19.9155 13.0506 19.7747L22.849 11.0463C24.6228 9.49769 25.383 7.07625 24.8199 4.76743ZM21.7227 9.80741L12.4874 18.0291L3.25216 9.80741C1.95696 8.653 1.39384 6.87915 1.81618 5.16162C2.21037 3.50039 3.42109 2.28967 5.05416 1.86733C5.16678 1.83917 5.25125 1.81101 5.36388 1.81101C5.70176 1.7547 6.06779 1.69839 6.40566 1.69839C7.4756 1.69839 8.51739 2.00811 9.41839 2.62755C10.601 3.44408 11.4175 4.6548 11.6991 6.06262C11.7835 6.45681 12.1214 6.73837 12.5156 6.73837C12.9098 6.73837 13.2758 6.45681 13.3321 6.06262C13.6137 4.6548 14.4021 3.41593 15.6128 2.62755C16.7953 1.81101 18.2313 1.52945 19.6673 1.81101C19.7799 1.83917 19.8644 1.86733 19.977 1.86733C21.5819 2.28967 22.7926 3.50039 23.215 5.16162C23.581 6.87915 23.0179 8.653 21.7227 9.80741Z" fill="#D4D4D4"/>
</svg>
