<svg width="20" height="26" viewBox="0 0 20 26" fill="none" xmlns="http://www.w3.org/2000/svg">
<path d="M16.8711 4.79556H15.1377V2.90044C15.1377 1.30577 13.8436 0 12.2489 0H2.88889C1.29422 0 0 1.31156 0 2.90044V18.3271C0.00577777 19.916 1.29422 21.2044 2.88311 21.2044C2.88311 21.2044 2.88311 21.2044 2.88889 21.2044H4.62223V23.0996C4.62223 24.6943 5.91644 26 7.51111 26H16.8711C18.4657 26 19.76 24.6884 19.76 23.0996V7.67289C19.7543 6.07823 18.4657 4.78977 16.8711 4.79556ZM4.62223 7.67289V20.0489H2.88889C1.93556 20.0547 1.16133 19.2863 1.15556 18.3387V18.3329V2.90623C1.15556 1.94711 1.92977 1.16711 2.88889 1.16133H12.2489C13.208 1.16711 13.9823 1.94711 13.9823 2.90623V4.79556H7.51111C5.92222 4.78977 4.628 6.07823 4.62223 7.67289C4.62223 7.66711 4.62223 7.66711 4.62223 7.67289ZM18.6044 23.1111C18.6044 24.0703 17.8303 24.8444 16.8711 24.8444H7.51111C6.552 24.8444 5.77777 24.0703 5.77777 23.1111V7.68444C5.77777 6.72533 6.552 5.95111 7.51111 5.95111H16.8711C17.8303 5.95111 18.6044 6.72533 18.6044 7.68444V23.1111Z" fill="#D4D4D4"/>
<path d="M14.8725 9.70605H9.51074C9.19296 9.70605 8.95608 9.98917 8.95608 10.307V13.7159C8.95029 15.2643 10.0365 16.6048 11.5561 16.9109V19.8749H10.5738C10.2561 19.8749 9.99608 20.1349 9.99608 20.4528C9.99608 20.7705 10.2561 21.0305 10.5738 21.0305H13.7517C14.0694 21.0305 14.3294 20.7705 14.3294 20.4528C14.3294 20.1349 14.0694 19.8749 13.7517 19.8749H12.7116V16.934C14.2832 16.674 15.433 15.3105 15.4272 13.7159V10.307C15.4272 9.98917 15.1903 9.70605 14.8725 9.70605ZM14.2717 13.7159C14.2717 14.8656 13.3414 15.7959 12.1916 15.7959C11.0418 15.7959 10.1116 14.8656 10.1116 13.7159V10.8616H14.2717V13.7159Z" fill="#D4D4D4"/>
</svg>
