<svg width="22" height="22" viewBox="0 0 22 22" fill="none" xmlns="http://www.w3.org/2000/svg">
<path d="M21.0715 0.00642713C20.8849 0.0310252 20.7124 0.118788 20.5827 0.255101L0.27722 20.5606C0.192996 20.6352 0.12497 20.7264 0.0773456 20.8283C0.0297211 20.9303 0.00350914 21.041 0.000328806 21.1535C-0.00285153 21.266 0.0170674 21.3779 0.0588551 21.4824C0.100643 21.5869 0.163412 21.6817 0.243285 21.761C0.323158 21.8403 0.418438 21.9024 0.523242 21.9434C0.628045 21.9844 0.740144 22.0035 0.852616 21.9995C0.965087 21.9955 1.07554 21.9684 1.17716 21.9201C1.27877 21.8717 1.36939 21.803 1.44341 21.7182L21.7489 1.41272C21.8724 1.2923 21.955 1.13613 21.9849 0.966255C22.0149 0.796384 21.9907 0.621394 21.9159 0.465992C21.841 0.31059 21.7192 0.182626 21.5677 0.100166C21.4162 0.0177066 21.2426 -0.0150829 21.0715 0.00642713ZM3.8787 0.0150021C1.76681 0.0150021 0.0371217 1.74469 0.0371217 3.85658C0.0371217 5.96848 1.76681 7.69816 3.8787 7.69816C5.9906 7.69816 7.72028 5.96848 7.72028 3.85658C7.72028 1.74469 5.9906 0.0150021 3.8787 0.0150021ZM3.8787 1.66139C5.10082 1.66139 6.07389 2.63446 6.07389 3.85658C6.07389 5.0787 5.10082 6.05177 3.8787 6.05177C2.65658 6.05177 1.68351 5.0787 1.68351 3.85658C1.68351 2.63446 2.65658 1.66139 3.8787 1.66139ZM18.1474 14.2837C16.0355 14.2837 14.3058 16.0134 14.3058 18.1253C14.3058 20.2372 16.0355 21.9669 18.1474 21.9669C20.2593 21.9669 21.989 20.2372 21.989 18.1253C21.989 16.0134 20.2593 14.2837 18.1474 14.2837ZM18.1474 15.9301C19.3695 15.9301 20.3426 16.9032 20.3426 18.1253C20.3426 19.3474 19.3695 20.3205 18.1474 20.3205C16.9253 20.3205 15.9522 19.3474 15.9522 18.1253C15.9522 16.9032 16.9253 15.9301 18.1474 15.9301Z" fill="#D4D4D4"/>
</svg>
