<svg width="28" height="28" viewBox="0 0 28 28" fill="none" xmlns="http://www.w3.org/2000/svg">
<path d="M10.5595 7.89309L9.69535 7.38978L10.5595 7.89308L13.9995 1.98689L17.4396 7.89308C17.7222 8.37829 18.1957 8.72234 18.7445 8.84118L25.4247 10.2877L20.8706 15.3845C20.4964 15.8032 20.3156 16.3599 20.3721 16.9186L21.0606 23.7188L14.806 20.9626C14.2922 20.7362 13.7068 20.7362 13.193 20.9626L6.93838 23.7188L7.6269 16.9186C7.68346 16.3599 7.50258 15.8032 7.12846 15.3845L6.38276 16.0508L7.12846 15.3845L2.57436 10.2877L9.25452 8.84118C9.80331 8.72234 10.2769 8.37829 10.5595 7.89309Z" stroke="#D4D4D4" stroke-width="2"/>
</svg>
