<svg width="26" height="20" viewBox="0 0 26 20" fill="none" xmlns="http://www.w3.org/2000/svg">
<path d="M11.2814 12.6706L10.8486 11.6318C10.4158 10.5931 9.03076 10.0737 6.98208 10.3622C4.24088 10.7373 1.2977 12.4109 0.345494 14.171C-0.116182 15.0078 -0.0296177 15.6426 0.114656 16.0177L0.547477 17.0565C0.576331 17.1431 0.605186 17.2008 0.662896 17.2874C1.09572 18.0087 2.04792 18.4127 3.34638 18.4127C3.69264 18.4127 4.0389 18.3838 4.41401 18.3261C7.15521 17.951 10.0695 16.2774 11.0506 14.5462C11.5123 13.7094 11.4257 13.0746 11.2814 12.6706ZM9.95411 13.9113C9.17504 15.2964 6.54926 16.7391 4.24088 17.0854C3.92348 17.1431 3.60608 17.1431 3.34638 17.1431C2.39418 17.1431 1.87479 16.8834 1.73052 16.6237C1.58625 16.3929 1.73052 16.0466 1.84594 15.8158C2.62502 14.4307 5.2508 12.988 7.58803 12.6417C7.90543 12.584 8.22283 12.584 8.48252 12.584C9.43473 12.584 9.92526 12.8437 10.0695 13.0746L10.0984 13.1034C10.2138 13.3631 10.0984 13.6805 9.95411 13.9113Z" fill="#D4D4D4"/>
<path d="M15.2924 9.12177C15.581 9.12177 15.8695 9.09292 16.1292 9.06406C17.168 8.89094 17.9182 8.40041 18.2933 7.67904L18.755 6.75569H18.7261C18.755 6.66912 18.8127 6.61141 18.8704 6.52485C19.2455 5.51493 18.8993 4.27418 17.9182 3.09114C16.2158 1.07131 12.9841 -0.313719 10.6468 0.0613926C9.60805 0.234521 8.88668 0.725051 8.51157 1.47527H8.48272L8.02104 2.39862C7.4728 3.43739 7.7902 4.79357 8.88668 6.06317C10.3294 7.82331 13.0418 9.12177 15.2924 9.12177ZM10.8488 1.27329C11.0508 1.24444 11.2528 1.21558 11.4836 1.21558C13.3592 1.21558 15.6964 2.34092 16.966 3.84136C17.6297 4.64929 17.9182 5.45722 17.7162 6.03432C17.6585 6.17859 17.6008 6.29401 17.4854 6.38058C17.1968 6.66912 16.764 6.8134 16.3889 6.87111C14.4556 7.18851 11.6856 5.94775 10.2717 4.27418C9.60805 3.46625 9.3195 2.65832 9.52149 2.08122C9.72347 1.56184 10.3583 1.35985 10.8488 1.27329Z" fill="#D4D4D4"/>
<path d="M25.4486 12.209L25.0157 11.4876H24.9869C24.4098 10.5354 23.4287 9.87173 22.188 9.64089C19.4468 9.15036 16.3016 10.8816 15.0609 13.392C14.4261 14.6905 14.3684 16.1044 14.9455 17.2008C14.9743 17.2874 15.032 17.3451 15.0897 17.4028H15.0609L15.4937 18.0953C16.0708 19.0475 17.0518 19.7112 18.2926 19.9132C18.61 19.9709 18.9274 19.9997 19.2448 19.9997C21.7263 19.9997 24.3232 18.3839 25.4197 16.1621C26.1411 14.8347 26.1411 13.3632 25.4486 12.209ZM16.2151 13.9691C17.0807 12.1801 19.2737 10.8239 21.2646 10.8239C21.5243 10.8239 21.7552 10.8528 21.986 10.8816C22.9382 11.0548 23.6596 11.5453 24.0058 12.2667C24.4098 13.0458 24.3521 13.998 23.8904 14.979C22.9094 16.9988 20.3124 18.4416 18.0906 18.0376C17.1384 17.8645 16.417 17.374 16.0708 16.6526C15.6957 15.9024 15.7245 14.9502 16.2151 13.9691Z" fill="#D4D4D4"/>
</svg>
