<svg width="34" height="20" viewBox="0 0 34 20" fill="none" xmlns="http://www.w3.org/2000/svg">
<path d="M30.1038 10.2268C31.077 9.40977 31.6961 8.18421 31.6961 6.81775C31.6961 4.36439 29.6998 2.368 27.246 2.368C24.7927 2.368 22.7959 4.36439 22.7959 6.81775C22.7959 8.18384 23.415 9.4094 24.3879 10.2268C23.5723 10.6197 22.8511 11.1773 22.264 11.8542C21.5096 11.25 20.6542 10.7654 19.7216 10.4423C21.3925 9.47164 22.5193 7.66312 22.5193 5.59703C22.5193 2.51076 20.0082 0 16.9216 0C13.8357 0 11.3242 2.51076 11.3242 5.59703C11.3242 7.66312 12.4502 9.47202 14.1208 10.4423C13.189 10.7654 12.3332 11.25 11.5787 11.8542C10.9917 11.1773 10.2693 10.6197 9.45412 10.2268C10.4273 9.40977 11.0472 8.18421 11.0472 6.81775C11.0472 4.36439 9.05045 2.368 6.59597 2.368C4.14149 2.368 2.14697 4.36439 2.14697 6.81775C2.14697 8.18384 2.76609 9.4094 3.73893 10.2268C1.5286 11.2936 0 13.558 0 16.1716C0 16.9786 0.653037 17.6309 1.45964 17.6309H8.40822C8.37542 17.9313 8.3538 18.2317 8.3538 18.5396C8.3538 19.3458 9.00758 20 9.81419 20H24.0289C24.8355 20 25.4897 19.3458 25.4897 18.5396C25.4897 18.2321 25.4669 17.9313 25.4353 17.6309H32.3827C33.1893 17.6309 33.8431 16.979 33.8431 16.1716C33.8431 13.5576 32.3141 11.2936 30.1038 10.2268ZM24.2559 6.81775C24.2559 5.1654 25.5948 3.82727 27.2464 3.82727C28.898 3.82727 30.2369 5.16615 30.2369 6.81775C30.2369 8.46935 28.8976 9.80748 27.2464 9.80748C25.5948 9.80748 24.2559 8.46935 24.2559 6.81775ZM12.7842 5.59703C12.7842 3.31215 14.6363 1.45927 16.9216 1.45927C19.2061 1.45927 21.0589 3.31252 21.0589 5.59703C21.0589 7.88266 19.2057 9.73517 16.9216 9.73517C14.6359 9.7348 12.7842 7.88229 12.7842 5.59703ZM3.60549 6.81775C3.60549 5.1654 4.94437 3.82727 6.5956 3.82727C8.24794 3.82727 9.58645 5.16615 9.58645 6.81775C9.58645 8.46935 8.24757 9.80748 6.5956 9.80748C4.94437 9.80748 3.60549 8.46935 3.60549 6.81775ZM1.45964 16.1716C1.45964 13.3351 3.75981 11.0342 6.59597 11.0342C8.17079 11.0342 9.5775 11.7446 10.5202 12.8595C9.68224 13.8021 9.05157 14.9293 8.69411 16.1716H1.45964ZM24.0286 18.5392H9.81419C9.81419 18.2317 9.83655 17.9291 9.87383 17.6305C9.93794 17.1258 10.0554 16.6372 10.2197 16.1712C10.4792 15.4384 10.8549 14.7615 11.3253 14.1599C11.6443 13.7529 12.0063 13.3798 12.4058 13.0503C13.6344 12.0387 15.2066 11.4308 16.9219 11.4308C18.6369 11.4308 20.2091 12.0383 21.438 13.0503C21.8369 13.3787 22.1984 13.7529 22.5186 14.1599C22.989 14.7608 23.3647 15.4388 23.6238 16.1712C23.7885 16.6372 23.9059 17.1262 23.97 17.6305C24.0077 17.9294 24.0286 18.2317 24.0286 18.5392ZM25.1494 16.1716C24.7912 14.9293 24.1601 13.8017 23.3233 12.8595C24.2649 11.7446 25.672 11.0342 27.2464 11.0342C30.0837 11.0342 32.3831 13.3351 32.3831 16.1716H25.1494Z" fill="#D4D4D4"/>
</svg>
