<svg width="26" height="18" viewBox="0 0 26 18" fill="none" xmlns="http://www.w3.org/2000/svg">
<path fill-rule="evenodd" clip-rule="evenodd" d="M4.89176 6.77416C6.87807 4.78784 9.50606 3.60686 12.3117 3.44787L12.9669 3.41098L13.6221 3.44787C16.4278 3.60634 19.0563 4.78784 21.0421 6.77416C23.018 8.75061 24.1881 11.3485 24.3637 14.1167H1.57014C1.74576 11.3485 2.91583 8.75061 4.89176 6.77416ZM10.4449 4.7655C6.88691 5.74541 4.05525 8.4981 2.97038 12.0249L2.7797 12.6453L4.02148 13.0272L4.21216 12.4063C5.16713 9.30291 7.66055 6.87963 10.7915 6.01663L11.417 5.84361L11.071 4.59248L10.4449 4.7655ZM25.9785 16.5244H0V18H25.9785V16.5244ZM12.2286 1.9806C8.96259 2.16505 6.02182 3.56477 3.85158 5.73502C1.51922 8.06737 0.0758573 11.2903 0.0758573 14.8498V15.5876H25.8564V14.8498C25.8564 11.2903 24.4131 8.06737 22.0807 5.73502C19.9105 3.56477 16.9697 2.16505 13.7037 1.9806V1.4761H15.7014V0H10.2303V1.4761H12.2281V1.9806H12.2286Z" fill="#D4D4D4"/>
</svg>
