<svg width="19" height="8" viewBox="0 0 19 8" fill="none" xmlns="http://www.w3.org/2000/svg">
<path d="M5.84742 7.20703H4.38257L1.53101 2.5293V7.20703H0.0661621V0.097656H1.53101L4.38745 4.78515V0.097656H5.84742V7.20703ZM11.8041 4.30176H8.99156V7.20703H7.52671V0.097656H12.1556V1.28418H8.99156V3.12012H11.8041V4.30176ZM18.9863 4.83887C18.9309 5.60384 18.6477 6.20605 18.1367 6.64551C17.6289 7.08496 16.9583 7.30469 16.125 7.30469C15.2135 7.30469 14.4957 6.9987 13.9716 6.38672C13.4508 5.77148 13.1904 4.92838 13.1904 3.85742V3.42285C13.1904 2.73926 13.3108 2.13704 13.5517 1.61621C13.7926 1.09538 14.136 0.696611 14.582 0.419921C15.0312 0.139974 15.552 0 16.1445 0C16.9648 0 17.6256 0.219731 18.1269 0.659181C18.6282 1.09863 18.9179 1.71549 18.996 2.50976H17.5312C17.4954 2.05078 17.3668 1.71875 17.1455 1.51367C16.9274 1.30534 16.5937 1.20117 16.1445 1.20117C15.6562 1.20117 15.29 1.37695 15.0459 1.72851C14.805 2.07682 14.6813 2.61881 14.6748 3.35449V3.8916C14.6748 4.65983 14.7903 5.22135 15.0214 5.57617C15.2558 5.93099 15.6237 6.1084 16.125 6.1084C16.5774 6.1084 16.9143 6.00586 17.1357 5.80078C17.3603 5.59245 17.4889 5.27181 17.5214 4.83887H18.9863Z" fill="#797979"/>
</svg>
