<svg width="13" height="12" viewBox="0 0 13 12" fill="none" xmlns="http://www.w3.org/2000/svg">
<path d="M9.22656 6.24779C9.22656 7.37611 10.145 8.37611 10.2498 8.48673L10.6943 8.95575L11.5834 8.0177L11.1388 7.54867C10.9292 7.32743 10.4847 6.70796 10.4847 6.24779C10.4847 5.78761 10.9711 5.12832 11.1388 4.9469C11.2437 4.83628 12.1621 3.84071 12.1621 2.70796C12.1621 1.57522 11.2437 0.579646 11.1388 0.469026L10.6943 0L9.80527 0.938053L10.2498 1.40708C10.4595 1.62832 10.904 2.24779 10.904 2.70796C10.904 3.16814 10.4176 3.82743 10.2498 4.00885C10.145 4.11947 9.22656 5.11947 9.22656 6.24779Z" fill="#797979"/>
<path d="M5.0332 6.24779C5.0332 7.37611 5.95158 8.37611 6.05642 8.48673L6.50094 8.95575L7.38997 8.0177L6.94545 7.54867C6.73578 7.32743 6.29126 6.70796 6.29126 6.24779C6.29126 5.78761 6.77771 5.12832 6.94545 4.9469C7.05029 4.83628 7.96868 3.84071 7.96868 2.70796C7.96868 1.57522 7.05029 0.579646 6.94545 0.469026L6.50094 0L5.61191 0.938053L6.05642 1.40708C6.2661 1.62832 6.71062 2.24779 6.71062 2.70796C6.71062 3.16814 6.22416 3.82743 6.05642 4.00885C5.95158 4.11947 5.0332 5.11947 5.0332 6.24779Z" fill="#797979"/>
<path d="M0.837891 6.24779C0.837891 7.37611 1.75627 8.37611 1.86111 8.48673L2.30563 8.95575L3.19466 8.0177L2.75015 7.54867C2.54047 7.32743 2.09595 6.70796 2.09595 6.24779C2.09595 5.78761 2.5824 5.12832 2.75015 4.9469C2.85498 4.83628 3.77337 3.84071 3.77337 2.70796C3.77337 1.57522 2.85498 0.579646 2.75015 0.469026L2.30563 0L1.4166 0.938053L1.86111 1.40708C2.07079 1.62832 2.51531 2.24779 2.51531 2.70796C2.51531 3.16814 2.02885 3.82743 1.86111 4.00885C1.75627 4.11947 0.837891 5.11947 0.837891 6.24779Z" fill="#797979"/>
<path d="M13 10.6724H0V11.9998H13V10.6724Z" fill="#797979"/>
</svg>
