<svg width="14" height="9" viewBox="0 0 14 9" fill="none" xmlns="http://www.w3.org/2000/svg">
<path d="M6.05468 3.81348C6.05468 4.47754 5.94726 5.05534 5.73242 5.54687C5.51757 6.03515 5.21972 6.42741 4.83886 6.72363L6.0205 7.65137L5.08789 8.47656L3.57422 7.26074C3.40169 7.29004 3.22265 7.30469 3.03711 7.30469C2.44791 7.30469 1.9222 7.16308 1.45996 6.87988C0.997724 6.59668 0.639644 6.19303 0.385742 5.66894C0.131836 5.1416 0.003255 4.53613 0 3.85254V3.50098C0 2.80111 0.125326 2.18587 0.375977 1.65527C0.629884 1.12142 0.986324 0.712891 1.44531 0.429691C1.90755 0.143229 2.43489 0 3.02734 0C3.61979 0 4.1455 0.143229 4.60449 0.429691C5.06673 0.712891 5.42317 1.12142 5.67382 1.65527C5.92773 2.18587 6.05468 2.79948 6.05468 3.49609V3.81348ZM4.57031 3.49121C4.57031 2.74577 4.43685 2.17936 4.16992 1.79199C3.90299 1.40462 3.52213 1.21094 3.02734 1.21094C2.5358 1.21094 2.15657 1.40299 1.88964 1.78711C1.62272 2.16797 1.48763 2.72786 1.48437 3.4668V3.81348C1.48437 4.53939 1.61783 5.10254 1.88476 5.50293C2.15169 5.90332 2.5358 6.10351 3.03711 6.10351C3.52864 6.10351 3.90625 5.91146 4.16992 5.52734C4.43359 5.13997 4.56705 4.57682 4.57031 3.83789V3.49121ZM10.1607 4.60449H8.99375V7.20703H7.5289V0.097656H10.1705C11.0103 0.097656 11.6581 0.284831 12.1138 0.659181C12.5696 1.03353 12.7974 1.5625 12.7974 2.24609C12.7974 2.73112 12.6916 3.13639 12.48 3.46191C12.2717 3.78418 11.9543 4.04134 11.5279 4.2334L13.066 7.13867V7.20703H11.4937L10.1607 4.60449ZM8.99375 3.41797H10.1753C10.5432 3.41797 10.828 3.32519 11.0298 3.13965C11.2317 2.95085 11.3326 2.69206 11.3326 2.36328C11.3326 2.02799 11.2365 1.76432 11.0445 1.57226C10.8557 1.38021 10.5643 1.28418 10.1705 1.28418H8.99375V3.41797Z" fill="#797979"/>
</svg>
