<svg width="9" height="12" viewBox="0 0 9 12" fill="none" xmlns="http://www.w3.org/2000/svg">
<path d="M4.98857 0.210045C4.92822 0.144178 4.8533 0.091295 4.76896 0.0550354C4.68462 0.0187757 4.59286 0 4.5 0C4.40714 0 4.31538 0.0187757 4.23104 0.0550354C4.1467 0.091295 4.07178 0.144178 4.01143 0.210045C3.85714 0.390045 0 4.61403 0 7.80002C1.77842e-08 8.91392 0.474106 9.9822 1.31802 10.7699C2.16193 11.5575 3.30653 12 4.5 12C5.69347 12 6.83807 11.5575 7.68198 10.7699C8.52589 9.9822 9 8.91392 9 7.80002C9 4.61403 5.14286 0.390045 4.98857 0.210045ZM4.5 10.8C3.64752 10.8 2.82995 10.4839 2.22716 9.92133C1.62436 9.35872 1.28571 8.59566 1.28571 7.80002C1.28571 5.67002 3.49714 2.76604 4.5 1.56004C5.50286 2.76004 7.71429 5.66402 7.71429 7.80002C7.71429 8.59566 7.37564 9.35872 6.77284 9.92133C6.17005 10.4839 5.35248 10.8 4.5 10.8Z" fill="#797979"/>
</svg>
