<svg width="22" height="20" viewBox="0 0 22 20" fill="none" xmlns="http://www.w3.org/2000/svg">
<path d="M15.376 10.413C15.376 12.2936 16.9066 13.9602 17.0813 14.1446L17.8222 14.9263L19.3039 13.3629L18.5631 12.5811C18.2136 12.2124 17.4728 11.18 17.4728 10.413C17.4728 9.64603 18.2835 8.54721 18.5631 8.24485C18.7378 8.06049 20.2684 6.40119 20.2684 4.51328C20.2684 2.62538 18.7378 0.966078 18.5631 0.781712L17.8222 0L16.3404 1.56342L17.0813 2.34513C17.4308 2.71387 18.1716 3.74632 18.1716 4.51328C18.1716 5.28024 17.3609 6.37907 17.0813 6.68142C16.9066 6.86579 15.376 8.53247 15.376 10.413Z" fill="#E5C584"/>
<path d="M8.38696 10.413C8.38696 12.2936 9.91761 13.9602 10.0923 14.1446L10.8332 14.9263L12.3149 13.3629L11.574 12.5811C11.2246 12.2124 10.4837 11.18 10.4837 10.413C10.4837 9.64603 11.2945 8.54721 11.574 8.24485C11.7488 8.06049 13.2795 6.40119 13.2795 4.51328C13.2795 2.62538 11.7488 0.966078 11.574 0.781712L10.8332 0L9.35149 1.56342L10.0923 2.34513C10.4418 2.71387 11.1827 3.74632 11.1827 4.51328C11.1827 5.28024 10.3719 6.37907 10.0923 6.68142C9.91761 6.86579 8.38696 8.53247 8.38696 10.413Z" fill="#E5C584"/>
<path d="M1.39819 10.413C1.39819 12.2936 2.92884 13.9602 3.10357 14.1446L3.84444 14.9263L5.32616 13.3629L4.58529 12.5811C4.23584 12.2124 3.49497 11.18 3.49497 10.413C3.49497 9.64603 4.30573 8.54721 4.58529 8.24485C4.76003 8.06049 6.29067 6.40119 6.29067 4.51328C6.29067 2.62538 4.76003 0.966078 4.58529 0.781712L3.84444 0L2.36272 1.56342L3.10357 2.34513C3.45304 2.71387 4.19389 3.74632 4.19389 4.51328C4.19389 5.28024 3.38314 6.37907 3.10357 6.68142C2.92884 6.86579 1.39819 8.53247 1.39819 10.413Z" fill="#E5C584"/>
<path d="M21.6667 17.7876H0V19.9999H21.6667V17.7876Z" fill="#E5C584"/>
</svg>
