<svg width="16" height="20" viewBox="0 0 16 20" fill="none" xmlns="http://www.w3.org/2000/svg">
<path d="M8.42514 0.350076C8.32322 0.240297 8.19668 0.152159 8.05423 0.0917256C7.91179 0.0312928 7.75683 0 7.6 0C7.44318 0 7.28821 0.0312928 7.14577 0.0917256C7.00332 0.152159 6.87678 0.240297 6.77486 0.350076C6.51429 0.650074 0 7.69004 0 13C3.00354e-08 14.8566 0.800712 16.637 2.22599 17.9498C3.65127 19.2626 5.58436 20 7.6 20C9.61564 20 11.5488 19.2626 12.974 17.9498C14.3993 16.637 15.2 14.8566 15.2 13C15.2 7.69004 8.68571 0.650074 8.42514 0.350076ZM7.6 18C6.16026 18 4.77948 17.4732 3.76142 16.5356C2.74337 15.5979 2.17143 14.3261 2.17143 13C2.17143 9.45004 5.90629 4.61006 7.6 2.60007C9.29371 4.60006 13.0286 9.44004 13.0286 13C13.0286 14.3261 12.4567 15.5979 11.4386 16.5356C10.4205 17.4732 9.03974 18 7.6 18Z" fill="#E5C584"/>
</svg>
