<svg width="30" height="30" viewBox="0 0 30 30" fill="none" xmlns="http://www.w3.org/2000/svg">
<path d="M9.54545 13.6364H4.09091C3.00593 13.6364 1.96539 13.2054 1.1982 12.4382C0.431005 11.671 0 10.6304 0 9.54545V4.09091C0 3.00593 0.431005 1.96539 1.1982 1.1982C1.96539 0.431005 3.00593 0 4.09091 0H9.54545C10.6304 0 11.671 0.431005 12.4382 1.1982C13.2054 1.96539 13.6364 3.00593 13.6364 4.09091V9.54545C13.6364 10.6304 13.2054 11.671 12.4382 12.4382C11.671 13.2054 10.6304 13.6364 9.54545 13.6364ZM4.09091 2.72727C3.72925 2.72727 3.3824 2.87094 3.12667 3.12667C2.87094 3.3824 2.72727 3.72925 2.72727 4.09091V9.54545C2.72727 9.90711 2.87094 10.254 3.12667 10.5097C3.3824 10.7654 3.72925 10.9091 4.09091 10.9091H9.54545C9.90711 10.9091 10.254 10.7654 10.5097 10.5097C10.7654 10.254 10.9091 9.90711 10.9091 9.54545V4.09091C10.9091 3.72925 10.7654 3.3824 10.5097 3.12667C10.254 2.87094 9.90711 2.72727 9.54545 2.72727H4.09091Z" fill="#E5C584"/>
<path d="M9.54545 29.9996H4.09091C3.00593 29.9996 1.96539 29.5686 1.1982 28.8014C0.431005 28.0342 0 26.9937 0 25.9087V20.4542C0 19.3692 0.431005 18.3287 1.1982 17.5615C1.96539 16.7943 3.00593 16.3633 4.09091 16.3633H9.54545C10.6304 16.3633 11.671 16.7943 12.4382 17.5615C13.2054 18.3287 13.6364 19.3692 13.6364 20.4542V25.9087C13.6364 26.9937 13.2054 28.0342 12.4382 28.8014C11.671 29.5686 10.6304 29.9996 9.54545 29.9996ZM4.09091 19.0906C3.72925 19.0906 3.3824 19.2342 3.12667 19.49C2.87094 19.7457 2.72727 20.0925 2.72727 20.4542V25.9087C2.72727 26.2704 2.87094 26.6172 3.12667 26.873C3.3824 27.1287 3.72925 27.2724 4.09091 27.2724H9.54545C9.90711 27.2724 10.254 27.1287 10.5097 26.873C10.7654 26.6172 10.9091 26.2704 10.9091 25.9087V20.4542C10.9091 20.0925 10.7654 19.7457 10.5097 19.49C10.254 19.2342 9.90711 19.0906 9.54545 19.0906H4.09091Z" fill="#E5C584"/>
<path d="M25.9092 13.6364H20.4547C19.3697 13.6364 18.3292 13.2054 17.562 12.4382C16.7948 11.671 16.3638 10.6304 16.3638 9.54545V4.09091C16.3638 3.00593 16.7948 1.96539 17.562 1.1982C18.3292 0.431005 19.3697 0 20.4547 0H25.9092C26.9942 0 28.0347 0.431005 28.8019 1.1982C29.5691 1.96539 30.0001 3.00593 30.0001 4.09091V9.54545C30.0001 10.6304 29.5691 11.671 28.8019 12.4382C28.0347 13.2054 26.9942 13.6364 25.9092 13.6364ZM20.4547 2.72727C20.093 2.72727 19.7462 2.87094 19.4904 3.12667C19.2347 3.3824 19.091 3.72925 19.091 4.09091V9.54545C19.091 9.90711 19.2347 10.254 19.4904 10.5097C19.7462 10.7654 20.093 10.9091 20.4547 10.9091H25.9092C26.2709 10.9091 26.6177 10.7654 26.8735 10.5097C27.1292 10.254 27.2729 9.90711 27.2729 9.54545V4.09091C27.2729 3.72925 27.1292 3.3824 26.8735 3.12667C26.6177 2.87094 26.2709 2.72727 25.9092 2.72727H20.4547Z" fill="#E5C584"/>
<path d="M23.1818 29.9996C22.8201 29.9996 22.4732 29.856 22.2175 29.6002C21.9618 29.3445 21.8181 28.9977 21.8181 28.636V17.7269C21.8181 17.3653 21.9618 17.0184 22.2175 16.7627C22.4732 16.5069 22.8201 16.3633 23.1818 16.3633C23.5434 16.3633 23.8903 16.5069 24.146 16.7627C24.4017 17.0184 24.5454 17.3653 24.5454 17.7269V28.636C24.5454 28.9977 24.4017 29.3445 24.146 29.6002C23.8903 29.856 23.5434 29.9996 23.1818 29.9996Z" fill="#E5C584"/>
<path d="M28.6365 24.5456H17.7274C17.3657 24.5456 17.0189 24.402 16.7632 24.1462C16.5074 23.8905 16.3638 23.5437 16.3638 23.182C16.3638 22.8203 16.5074 22.4735 16.7632 22.2178C17.0189 21.962 17.3657 21.8184 17.7274 21.8184H28.6365C28.9982 21.8184 29.345 21.962 29.6007 22.2178C29.8565 22.4735 30.0001 22.8203 30.0001 23.182C30.0001 23.5437 29.8565 23.8905 29.6007 24.1462C29.345 24.402 28.9982 24.5456 28.6365 24.5456Z" fill="#E5C584"/>
</svg>
