<svg width="42" height="30" viewBox="0 0 42 30" fill="none" xmlns="http://www.w3.org/2000/svg">
<path d="M35.0968 0.486736C34.8001 0.19009 34.3978 0.0234375 33.9783 0.0234375C33.5588 0.0234375 33.1564 0.19009 32.8598 0.486736C32.5631 0.783382 32.3965 1.18572 32.3965 1.60524C32.3965 2.02476 32.5631 2.4271 32.8598 2.72374C36.1156 5.9843 37.9443 10.4037 37.9443 15.0115C37.9443 19.6192 36.1156 24.0386 32.8598 27.2992C32.7129 27.4461 32.5964 27.6205 32.5169 27.8124C32.4374 28.0043 32.3965 28.21 32.3965 28.4177C32.3965 28.6254 32.4374 28.8311 32.5169 29.023C32.5964 29.2149 32.7129 29.3893 32.8598 29.5362C33.0067 29.6831 33.181 29.7996 33.373 29.8791C33.5649 29.9586 33.7706 29.9995 33.9783 29.9995C34.186 29.9995 34.3917 29.9586 34.5836 29.8791C34.7755 29.7996 34.9499 29.6831 35.0968 29.5362C38.9463 25.6826 41.1086 20.4584 41.1086 15.0115C41.1086 9.56453 38.9463 4.34035 35.0968 0.486736Z" fill="#E5C584"/>
<path d="M30.3383 5.25289C30.1948 5.09394 30.0205 4.96581 29.8259 4.87627C29.6314 4.78673 29.4207 4.73764 29.2066 4.73199C28.9925 4.72635 28.7795 4.76426 28.5805 4.84342C28.3815 4.92258 28.2007 5.04135 28.049 5.19251C27.8973 5.34368 27.7779 5.52408 27.698 5.72279C27.6182 5.9215 27.5795 6.13436 27.5844 6.34846C27.5893 6.56256 27.6376 6.77344 27.7265 6.96829C27.8153 7.16315 27.9428 7.33792 28.1013 7.482C30.0919 9.47412 31.2101 12.1751 31.2101 14.9914C31.2101 17.8076 30.0919 20.5086 28.1013 22.5008C27.8046 22.7974 27.638 23.1998 27.638 23.6193C27.638 24.0388 27.8046 24.4411 28.1013 24.7378C28.3979 25.0344 28.8003 25.2011 29.2198 25.2011C29.6393 25.2011 30.0416 25.0344 30.3383 24.7378C32.9203 22.1529 34.3705 18.6488 34.3705 14.9953C34.3705 11.3418 32.9203 7.83776 30.3383 5.25289Z" fill="#E5C584"/>
<path d="M3.1622 15.0078C3.15537 12.721 3.60251 10.4556 4.4777 8.34296C5.35289 6.23029 6.63873 4.31234 8.26068 2.70031C8.40757 2.55342 8.52408 2.37905 8.60357 2.18713C8.68306 1.99522 8.72398 1.78953 8.72398 1.5818C8.72398 1.37408 8.68306 1.16839 8.60357 0.976473C8.52408 0.784559 8.40757 0.610184 8.26068 0.4633C8.1138 0.316416 7.93942 0.199901 7.74751 0.120408C7.55559 0.0409153 7.3499 0 7.14218 0C6.93445 0 6.72876 0.0409153 6.53685 0.120408C6.34493 0.199901 6.17056 0.316416 6.02367 0.4633C4.11401 2.37188 2.59911 4.63804 1.56555 7.13228C0.53198 9.62653 0 12.3 0 14.9999C0 17.6998 0.53198 20.3733 1.56555 22.8675C2.59911 25.3617 4.11401 27.6279 6.02367 29.5365C6.17056 29.6834 6.34493 29.7999 6.53685 29.8794C6.72876 29.9589 6.93445 29.9998 7.14218 29.9998C7.3499 29.9998 7.55559 29.9589 7.74751 29.8794C7.93942 29.7999 8.1138 29.6834 8.26068 29.5365C8.40757 29.3896 8.52408 29.2152 8.60357 29.0233C8.68306 28.8314 8.72398 28.6257 8.72398 28.418C8.72398 28.2103 8.68306 28.0046 8.60357 27.8127C8.52408 27.6207 8.40757 27.4464 8.26068 27.2995C6.64028 25.6896 5.3553 23.7743 4.48014 21.6644C3.60498 19.5545 3.15702 17.292 3.1622 15.0078Z" fill="#E5C584"/>
<path d="M9.89714 14.4862C10.038 11.8338 11.1658 9.32998 13.059 7.46691C13.3556 7.17026 13.5223 6.76792 13.5223 6.3484C13.5223 5.92888 13.3556 5.52655 13.059 5.2299C12.7623 4.93326 12.36 4.7666 11.9405 4.7666C11.521 4.7666 11.1186 4.93326 10.822 5.2299C9.53402 6.51097 8.51195 8.03396 7.81452 9.71133C7.11709 11.3887 6.75806 13.1874 6.75806 15.004C6.75806 16.8205 7.11709 18.6192 7.81452 20.2966C8.51195 21.974 9.53402 23.497 10.822 24.778C10.9689 24.9249 11.1432 25.0414 11.3352 25.1209C11.5271 25.2004 11.7328 25.2413 11.9405 25.2413C12.1482 25.2413 12.3539 25.2004 12.5458 25.1209C12.7377 25.0414 12.9121 24.9249 13.059 24.778C13.2059 24.6311 13.3224 24.4568 13.4019 24.2648C13.4814 24.0729 13.5223 23.8672 13.5223 23.6595C13.5223 23.4518 13.4814 23.2461 13.4019 23.0542C13.3224 22.8623 13.2059 22.6879 13.059 22.541C11.9995 21.4931 11.1709 20.2351 10.6264 18.8479C10.0819 17.4608 9.83346 15.9751 9.89714 14.4862Z" fill="#E5C584"/>
<path d="M20.5521 7.89453C19.1451 7.89453 17.7697 8.31177 16.5997 9.09348C15.4298 9.8752 14.518 10.9863 13.9795 12.2862C13.4411 13.5862 13.3002 15.0166 13.5747 16.3966C13.8492 17.7766 14.5267 19.0442 15.5217 20.0392C16.5166 21.0341 17.7842 21.7116 19.1642 21.9861C20.5443 22.2606 21.9747 22.1198 23.2746 21.5813C24.5746 21.0429 25.6856 20.131 26.4674 18.9611C27.2491 17.7912 27.6663 16.4157 27.6663 15.0087C27.6663 13.1219 26.9168 11.3124 25.5826 9.97822C24.2485 8.64406 22.4389 7.89453 20.5521 7.89453ZM20.5521 18.961C19.7705 18.961 19.0063 18.7292 18.3564 18.2949C17.7064 17.8606 17.1998 17.2434 16.9007 16.5212C16.6016 15.799 16.5233 15.0043 16.6758 14.2376C16.8283 13.471 17.2047 12.7667 17.7574 12.214C18.3102 11.6612 19.0144 11.2848 19.7811 11.1323C20.5478 10.9798 21.3424 11.0581 22.0646 11.3572C22.7868 11.6564 23.4041 12.1629 23.8384 12.8129C24.2727 13.4629 24.5045 14.227 24.5045 15.0087C24.5045 16.0569 24.0881 17.0622 23.3469 17.8034C22.6057 18.5446 21.6004 18.961 20.5521 18.961Z" fill="#E5C584"/>
</svg>
