<svg width="22" height="22" viewBox="0 0 22 22" fill="none" xmlns="http://www.w3.org/2000/svg">
<path d="M8.96296 17.9259H2.44444C1.79614 17.9259 1.17438 17.6684 0.715961 17.21C0.257539 16.7515 0 16.1298 0 15.4815V2.44444C0 1.79614 0.257539 1.17438 0.715961 0.715961C1.17438 0.257539 1.79614 0 2.44444 0H15.4815C16.1298 0 16.7515 0.257539 17.21 0.715961C17.6684 1.17438 17.9259 1.79614 17.9259 2.44444V8.96296C17.9259 9.17906 17.8401 9.38632 17.6873 9.53912C17.5345 9.69193 17.3272 9.77778 17.1111 9.77778C16.895 9.77778 16.6878 9.69193 16.5349 9.53912C16.3821 9.38632 16.2963 9.17906 16.2963 8.96296V2.44444C16.2963 2.22834 16.2105 2.02109 16.0576 1.86828C15.9048 1.71548 15.6976 1.62963 15.4815 1.62963H2.44444C2.22834 1.62963 2.02109 1.71548 1.86828 1.86828C1.71548 2.02109 1.62963 2.22834 1.62963 2.44444V15.4815C1.62963 15.6976 1.71548 15.9048 1.86828 16.0576C2.02109 16.2105 2.22834 16.2963 2.44444 16.2963H8.96296C9.17906 16.2963 9.38632 16.3821 9.53912 16.5349C9.69193 16.6878 9.77778 16.895 9.77778 17.1111C9.77778 17.3272 9.69193 17.5345 9.53912 17.6873C9.38632 17.8401 9.17906 17.9259 8.96296 17.9259Z" fill="#E5C584"/>
<path d="M17.111 22.0004C16.8949 22.0004 16.6876 21.9146 16.5348 21.7618C16.382 21.609 16.2961 21.4017 16.2961 21.1856V13.0375C16.2961 12.8214 16.382 12.6141 16.5348 12.4613C16.6876 12.3085 16.8949 12.2227 17.111 12.2227C17.3271 12.2227 17.5343 12.3085 17.6871 12.4613C17.8399 12.6141 17.9258 12.8214 17.9258 13.0375V21.1856C17.9258 21.4017 17.8399 21.609 17.6871 21.7618C17.5343 21.9146 17.3271 22.0004 17.111 22.0004Z" fill="#E5C584"/>
<path d="M21.1851 17.9255H13.037C12.8209 17.9255 12.6136 17.8397 12.4608 17.6869C12.308 17.5341 12.2222 17.3268 12.2222 17.1107C12.2222 16.8946 12.308 16.6874 12.4608 16.5346C12.6136 16.3817 12.8209 16.2959 13.037 16.2959H21.1851C21.4012 16.2959 21.6085 16.3817 21.7613 16.5346C21.9141 16.6874 21.9999 16.8946 21.9999 17.1107C21.9999 17.3268 21.9141 17.5341 21.7613 17.6869C21.6085 17.8397 21.4012 17.9255 21.1851 17.9255Z" fill="#E5C584"/>
</svg>
