<svg width="23" height="17" viewBox="0 0 23 17" fill="none" xmlns="http://www.w3.org/2000/svg">
<path d="M7.2943 0.884766C6.44395 0.885544 5.61885 1.17383 4.95304 1.70278C4.28723 2.23173 3.81983 2.97027 3.62678 3.79841H0.865944C0.636281 3.79841 0.416025 3.88965 0.253629 4.05204C0.0912331 4.21444 0 4.43469 0 4.66436C0 4.89402 0.0912331 5.11428 0.253629 5.27667C0.416025 5.43907 0.636281 5.5303 0.865944 5.5303H3.62678C3.82268 6.35573 4.2913 7.09094 4.95685 7.61702C5.62239 8.14309 6.44595 8.42928 7.2943 8.42928C8.14266 8.42928 8.96621 8.14309 9.63176 7.61702C10.2973 7.09094 10.7659 6.35573 10.9618 5.5303H21.6792C21.9088 5.5303 22.1291 5.43907 22.2915 5.27667C22.4539 5.11428 22.5451 4.89402 22.5451 4.66436C22.5451 4.43469 22.4539 4.21444 22.2915 4.05204C22.1291 3.88965 21.9088 3.79841 21.6792 3.79841H10.9618C10.7688 2.97027 10.3014 2.23173 9.63557 1.70278C8.96976 1.17383 8.14465 0.885544 7.2943 0.884766V0.884766ZM7.2943 6.71206C6.89132 6.71206 6.49739 6.59256 6.16232 6.36868C5.82725 6.14479 5.5661 5.82657 5.41189 5.45427C5.25767 5.08196 5.21732 4.67228 5.29594 4.27704C5.37456 3.88181 5.56861 3.51875 5.85356 3.2338C6.13851 2.94885 6.50156 2.7548 6.8968 2.67618C7.29204 2.59756 7.70172 2.63791 8.07403 2.79213C8.44633 2.94634 8.76455 3.20749 8.98843 3.54256C9.21232 3.87763 9.33182 4.27156 9.33182 4.67454C9.33182 5.21493 9.11715 5.73318 8.73504 6.11528C8.35294 6.49739 7.83469 6.71206 7.2943 6.71206Z" fill="#E5C584"/>
<path d="M15.2814 9.34082C14.431 9.3416 13.6059 9.62988 12.9401 10.1588C12.2743 10.6878 11.8069 11.4263 11.6138 12.2545H0.865944C0.636281 12.2545 0.416025 12.3457 0.253629 12.5081C0.0912331 12.6705 0 12.8907 0 13.1204C0 13.3501 0.0912331 13.5703 0.253629 13.7327C0.416025 13.8951 0.636281 13.9864 0.865944 13.9864H11.5833C11.7792 14.8118 12.2478 15.547 12.9133 16.0731C13.5789 16.5991 14.4024 16.8853 15.2508 16.8853C16.0992 16.8853 16.9227 16.5991 17.5883 16.0731C18.2538 15.547 18.7224 14.8118 18.9183 13.9864H21.6792C21.9088 13.9864 22.1291 13.8951 22.2915 13.7327C22.4539 13.5703 22.5451 13.3501 22.5451 13.1204C22.5451 12.8907 22.4539 12.6705 22.2915 12.5081C22.1291 12.3457 21.9088 12.2545 21.6792 12.2545H18.9183C18.7265 11.4314 18.2636 10.6967 17.604 10.1683C16.9445 9.63987 16.1265 9.34845 15.2814 9.34082ZM15.2814 15.1477C14.8784 15.1477 14.4844 15.0282 14.1494 14.8044C13.8143 14.5805 13.5532 14.2623 13.3989 13.8899C13.2447 13.5176 13.2044 13.108 13.283 12.7127C13.3616 12.3175 13.5557 11.9544 13.8406 11.6695C14.1256 11.3845 14.4886 11.1905 14.8839 11.1119C15.2791 11.0332 15.6888 11.0736 16.0611 11.2278C16.4334 11.382 16.7516 11.6432 16.9755 11.9782C17.1994 12.3133 17.3189 12.7072 17.3189 13.1102C17.3189 13.6506 17.1042 14.1689 16.7221 14.551C16.34 14.9331 15.8217 15.1477 15.2814 15.1477Z" fill="#E5C584"/>
</svg>
