<svg width="31" height="21" viewBox="0 0 31 21" fill="none" xmlns="http://www.w3.org/2000/svg">
<path d="M2.41379 0.884766C1.08848 0.884766 0 1.97324 0 3.29856V18.471C0 19.7963 1.08848 20.8848 2.41379 20.8848H27.931C29.2563 20.8848 30.3448 19.7963 30.3448 18.471V3.29856C30.3448 1.97324 29.2563 0.884766 27.931 0.884766H2.41379ZM2.41379 2.26408H27.931C28.5161 2.26408 28.9655 2.71352 28.9655 3.29856V4.33304H1.37931V3.29856C1.37931 2.71352 1.82876 2.26408 2.41379 2.26408ZM1.37931 5.71235H28.9655V7.78132H1.37931V5.71235ZM1.37931 9.16063H28.9655V18.471C28.9655 19.056 28.5161 19.5055 27.931 19.5055H2.41379C1.82876 19.5055 1.37931 19.056 1.37931 18.471V9.16063ZM20.6897 11.9085C19.1743 11.9085 17.931 13.1625 17.931 14.6779C17.931 16.1932 19.1743 17.4365 20.6897 17.4365C21.339 17.4365 21.9397 17.2036 22.4138 16.8223C22.8865 17.2046 23.4864 17.4365 24.1379 17.4365C25.6533 17.4365 26.8966 16.1932 26.8966 14.6779C26.8966 13.1625 25.6533 11.9192 24.1379 11.9192C23.4908 11.9192 22.8958 12.1481 22.4246 12.5227C21.9494 12.1382 21.342 11.9085 20.6897 11.9085ZM20.6897 13.2986C21.4596 13.2986 22.069 13.9079 22.069 14.6779C22.069 15.4478 21.4596 16.0464 20.6897 16.0464C19.9197 16.0464 19.3103 15.4478 19.3103 14.6779C19.3103 13.9079 19.9197 13.2986 20.6897 13.2986ZM24.1379 13.2986C24.9079 13.2986 25.5172 13.9079 25.5172 14.6779C25.5172 15.4478 24.9079 16.0572 24.1379 16.0572C23.7944 16.0572 23.4843 15.9303 23.2435 15.7231C23.3786 15.3988 23.4483 15.0485 23.4483 14.6779C23.4483 14.3107 23.3762 13.9545 23.2435 13.6326C23.4843 13.4286 23.7944 13.2986 24.1379 13.2986Z" fill="#E5C584"/>
</svg>
