<svg width="22" height="22" viewBox="0 0 22 22" fill="none" xmlns="http://www.w3.org/2000/svg">
<path d="M15.4815 22.0001H2.44444C1.79614 22.0001 1.17438 21.7426 0.715961 21.2842C0.257539 20.8258 0 20.204 0 19.5557V6.51866C0 5.87036 0.257539 5.2486 0.715961 4.79018C1.17438 4.33176 1.79614 4.07422 2.44444 4.07422H8.96296C9.17906 4.07422 9.38632 4.16007 9.53912 4.31287C9.69193 4.46568 9.77778 4.67293 9.77778 4.88903C9.77778 5.10514 9.69193 5.31239 9.53912 5.46519C9.38632 5.618 9.17906 5.70385 8.96296 5.70385H2.44444C2.22834 5.70385 2.02109 5.78969 1.86828 5.9425C1.71548 6.09531 1.62963 6.30256 1.62963 6.51866V19.5557C1.62963 19.7718 1.71548 19.9791 1.86828 20.1319C2.02109 20.2847 2.22834 20.3705 2.44444 20.3705H15.4815C15.6976 20.3705 15.9048 20.2847 16.0576 20.1319C16.2105 19.9791 16.2963 19.7718 16.2963 19.5557V13.0372C16.2963 12.8211 16.3821 12.6138 16.5349 12.461C16.6878 12.3082 16.895 12.2224 17.1111 12.2224C17.3272 12.2224 17.5345 12.3082 17.6873 12.461C17.8401 12.6138 17.9259 12.8211 17.9259 13.0372V19.5557C17.9259 20.204 17.6684 20.8258 17.21 21.2842C16.7515 21.7426 16.1298 22.0001 15.4815 22.0001Z" fill="#E5C584"/>
<path d="M17.1111 9.77778C16.1441 9.77778 15.1989 9.49105 14.3949 8.95385C13.591 8.41665 12.9643 7.65311 12.5943 6.75979C12.2243 5.86646 12.1275 4.88347 12.3161 3.93512C12.5047 2.98676 12.9704 2.11565 13.6541 1.43192C14.3378 0.748201 15.2089 0.28258 16.1573 0.0939408C17.1056 -0.094698 18.0886 0.00211829 18.982 0.372147C19.8753 0.742175 20.6388 1.3688 21.176 2.17277C21.7132 2.97674 21.9999 3.92196 21.9999 4.88889C21.9999 6.1855 21.4849 7.42901 20.568 8.34586C19.6512 9.2627 18.4077 9.77778 17.1111 9.77778ZM17.1111 1.62963C16.4664 1.62963 15.8363 1.82078 15.3003 2.17892C14.7643 2.53705 14.3466 3.04607 14.0999 3.64163C13.8532 4.23718 13.7887 4.89251 13.9144 5.52474C14.0402 6.15697 14.3506 6.73772 14.8064 7.19353C15.2622 7.64935 15.843 7.95976 16.4752 8.08552C17.1074 8.21128 17.7628 8.14674 18.3583 7.90005C18.9539 7.65337 19.4629 7.23562 19.821 6.69964C20.1792 6.16365 20.3703 5.53351 20.3703 4.88889C20.3703 4.02448 20.0269 3.19548 19.4157 2.58425C18.8045 1.97302 17.9755 1.62963 17.1111 1.62963Z" fill="#E5C584"/>
</svg>
