<svg width="21" height="21" viewBox="0 0 21 21" fill="none" xmlns="http://www.w3.org/2000/svg">
<path d="M15.2585 20.8848C14.8699 20.8835 14.4875 20.7863 14.1454 20.6019L10.5551 18.6813C10.4783 18.6413 10.393 18.6204 10.3064 18.6204C10.2199 18.6204 10.1346 18.6413 10.0578 18.6813L6.4401 20.5517C6.04875 20.755 5.60826 20.8444 5.16864 20.81C4.72901 20.7755 4.30785 20.6185 3.95297 20.3567C3.59809 20.0949 3.32371 19.7389 3.16096 19.3291C2.99821 18.9192 2.95363 18.472 3.03226 18.0381L3.7485 14.028C3.7608 13.9455 3.75359 13.8613 3.72745 13.782C3.7013 13.7028 3.65695 13.6308 3.59795 13.5718L0.701054 10.7069C0.387791 10.3974 0.16741 10.0064 0.064858 9.57822C-0.0376944 9.15 -0.0183229 8.70162 0.12078 8.28383C0.259883 7.86605 0.513163 7.49555 0.851947 7.21427C1.19073 6.93299 1.60149 6.75217 2.03773 6.69227L6.07057 6.1357C6.15682 6.12351 6.23883 6.09058 6.30955 6.03972C6.38027 5.98887 6.43759 5.92161 6.4766 5.84373L8.30141 2.1941C8.49511 1.80058 8.7953 1.46928 9.16788 1.23783C9.54045 1.00639 9.97046 0.884074 10.4091 0.884791C10.8532 0.882708 11.2888 1.0068 11.6652 1.24263C12.0415 1.47846 12.3432 1.81633 12.535 2.21691L14.3096 5.86654C14.3473 5.94494 14.4036 6.01294 14.4735 6.06462C14.5435 6.1163 14.6251 6.1501 14.7111 6.16307L18.7348 6.77894C19.1708 6.84477 19.5797 7.03152 19.915 7.31799C20.2502 7.60447 20.4984 7.9792 20.6315 8.39964C20.7645 8.82008 20.777 9.2694 20.6675 9.69658C20.558 10.1238 20.331 10.5117 20.0122 10.8163L17.0788 13.6357C17.0193 13.6945 16.9742 13.7663 16.9473 13.8455C16.9204 13.9247 16.9123 14.009 16.9237 14.0919L17.5852 18.111C17.6451 18.4508 17.6299 18.7997 17.5407 19.133C17.4514 19.4663 17.2902 19.776 17.0685 20.0403C16.8467 20.3047 16.5698 20.5173 16.2571 20.6632C15.9444 20.809 15.6036 20.8847 15.2585 20.8848ZM10.2996 16.8154C10.6879 16.8151 11.0702 16.9107 11.4127 17.0937L15.003 19.0143C15.0912 19.0621 15.1911 19.0841 15.2912 19.0777C15.3913 19.0714 15.4876 19.0369 15.569 18.9784C15.6505 18.9198 15.7137 18.8395 15.7516 18.7466C15.7895 18.6537 15.8004 18.552 15.7832 18.4532L15.1217 14.434C15.0598 14.0564 15.0906 13.6693 15.2113 13.3061C15.3321 12.943 15.5393 12.6146 15.8151 12.3492L18.753 9.51617C18.8249 9.44698 18.8759 9.35905 18.9003 9.26235C18.9247 9.16565 18.9215 9.06405 18.8911 8.96906C18.8607 8.87408 18.8043 8.78951 18.7283 8.72494C18.6523 8.66037 18.5597 8.61839 18.4611 8.60376L14.4374 7.98789C14.0617 7.92615 13.7066 7.77441 13.4023 7.54561C13.098 7.31682 12.8537 7.01777 12.6901 6.67402L10.9155 3.02439C10.872 2.93365 10.8037 2.85706 10.7185 2.80345C10.6334 2.74984 10.5348 2.7214 10.4342 2.7214C10.3335 2.7214 10.235 2.74984 10.1498 2.80345C10.0646 2.85706 9.99637 2.93365 9.95287 3.02439L8.12805 6.67402C7.94924 7.01567 7.68939 7.30827 7.37126 7.52619C7.05313 7.74412 6.68641 7.88071 6.30324 7.92402L2.2704 8.48059C2.17099 8.4938 2.07732 8.53476 2.00012 8.59875C1.92292 8.66274 1.8653 8.74719 1.83388 8.84242C1.80245 8.93765 1.79849 9.0398 1.82244 9.13717C1.84639 9.23455 1.89729 9.32321 1.9693 9.39299L4.87532 12.2534C5.14795 12.5222 5.35105 12.8533 5.4671 13.2181C5.58314 13.5829 5.60864 13.9705 5.54138 14.3474L4.82514 18.3574C4.80827 18.4559 4.81913 18.5571 4.85652 18.6497C4.89391 18.7424 4.95634 18.8228 5.03683 18.882C5.11732 18.9412 5.2127 18.9768 5.31228 18.9849C5.41186 18.9929 5.51172 18.9731 5.60068 18.9277L9.21838 17.0572C9.55447 16.8919 9.92509 16.809 10.2996 16.8154Z" fill="#E5C584"/>
</svg>
