<svg width="20" height="27" viewBox="0 0 20 27" fill="none" xmlns="http://www.w3.org/2000/svg">
<path fill-rule="evenodd" clip-rule="evenodd" d="M17.1192 22.5916C17.333 21.663 17.6578 19.8773 17.8202 18.9845C18.0241 17.8628 18.2109 18.1143 17.1065 17.8242C16.2972 17.6119 14.712 17.2145 13.9195 17.016C13.1269 16.8171 13.1269 16.8171 12.6114 17.1696C12.0959 17.522 11.0653 18.227 10.5498 18.5791C10.0344 18.9318 10.0344 18.9318 9.77337 18.7164C7.7839 17.0736 5.53425 13.8325 4.69187 11.4591C4.57879 11.1401 4.57879 11.1401 5.08618 10.7765C5.59347 10.4127 6.60844 9.68512 7.11602 9.32115C7.62341 8.95758 7.62341 8.95758 7.70786 8.14481C7.79232 7.33204 7.96092 5.70661 8.03793 4.87339C8.14336 3.73648 8.31602 3.99786 7.19203 3.80618C6.29727 3.65323 4.50856 3.3477 3.5628 3.23077C2.59802 3.11136 2.41503 3.0088 2.22229 3.94086C1.83512 5.81232 1.75979 7.76595 2.14855 9.64095C3.05258 13.9967 6.76849 19.3519 10.6121 21.7282C12.1784 22.696 14.166 23.3413 15.9937 23.6084C16.9355 23.7459 16.9015 23.5388 17.1192 22.5916Z" fill="#E5C584"/>
</svg>
