<svg width="30" height="30" viewBox="0 0 30 30" fill="none" xmlns="http://www.w3.org/2000/svg">
<path d="M10.2273 0H3.40909C2.50494 0 1.63783 0.359171 0.9985 0.9985C0.359171 1.63783 0 2.50494 0 3.40909V7.5C0 8.40415 0.359171 9.27126 0.9985 9.91059C1.63783 10.5499 2.50494 10.9091 3.40909 10.9091H10.2273C10.675 10.9091 11.1183 10.8209 11.5319 10.6496C11.9455 10.4783 12.3213 10.2272 12.6379 9.91059C12.9544 9.59403 13.2055 9.21821 13.3769 8.8046C13.5482 8.39099 13.6364 7.94769 13.6364 7.5V3.40909C13.6364 2.9614 13.5482 2.5181 13.3769 2.10449C13.2055 1.69088 12.9544 1.31506 12.6379 0.9985C12.3213 0.681936 11.9455 0.430824 11.5319 0.259501C11.1183 0.0881784 10.675 0 10.2273 0ZM10.9091 7.5C10.9091 7.68083 10.8373 7.85425 10.7094 7.98212C10.5815 8.10998 10.4081 8.18182 10.2273 8.18182H3.40909C3.22826 8.18182 3.05484 8.10998 2.92697 7.98212C2.79911 7.85425 2.72727 7.68083 2.72727 7.5V3.40909C2.72727 3.22826 2.79911 3.05484 2.92697 2.92697C3.05484 2.79911 3.22826 2.72727 3.40909 2.72727H10.2273C10.4081 2.72727 10.5815 2.79911 10.7094 2.92697C10.8373 3.05484 10.9091 3.22826 10.9091 3.40909V7.5Z" fill="#E5C584"/>
<path d="M10.2273 13.6367H3.40909C2.50494 13.6367 1.63783 13.9959 0.9985 14.6352C0.359171 15.2745 0 16.1417 0 17.0458V26.5913C0 27.4954 0.359171 28.3625 0.9985 29.0019C1.63783 29.6412 2.50494 30.0004 3.40909 30.0004H10.2273C10.675 30.0004 11.1183 29.9122 11.5319 29.7409C11.9455 29.5695 12.3213 29.3184 12.6379 29.0019C12.9544 28.6853 13.2055 28.3095 13.3769 27.8959C13.5482 27.4823 13.6364 27.039 13.6364 26.5913V17.0458C13.6364 16.5981 13.5482 16.1548 13.3769 15.7412C13.2055 15.3276 12.9544 14.9518 12.6379 14.6352C12.3213 14.3187 11.9455 14.0675 11.5319 13.8962C11.1183 13.7249 10.675 13.6367 10.2273 13.6367ZM10.9091 26.5913C10.9091 26.7721 10.8373 26.9455 10.7094 27.0734C10.5815 27.2012 10.4081 27.2731 10.2273 27.2731H3.40909C3.22826 27.2731 3.05484 27.2012 2.92697 27.0734C2.79911 26.9455 2.72727 26.7721 2.72727 26.5913V17.0458C2.72727 16.865 2.79911 16.6916 2.92697 16.5637C3.05484 16.4358 3.22826 16.364 3.40909 16.364H10.2273C10.4081 16.364 10.5815 16.4358 10.7094 16.5637C10.8373 16.6916 10.9091 16.865 10.9091 17.0458V26.5913Z" fill="#E5C584"/>
<path d="M26.591 0H19.7729C18.8687 0 18.0016 0.359171 17.3623 0.9985C16.7229 1.63783 16.3638 2.50494 16.3638 3.40909V12.9545C16.3638 13.8587 16.7229 14.7258 17.3623 15.3651C18.0016 16.0045 18.8687 16.3636 19.7729 16.3636H26.591C27.4952 16.3636 28.3623 16.0045 29.0016 15.3651C29.641 14.7258 30.0001 13.8587 30.0001 12.9545V3.40909C30.0001 2.50494 29.641 1.63783 29.0016 0.9985C28.3623 0.359171 27.4952 0 26.591 0ZM27.2729 12.9545C27.2729 13.1354 27.201 13.3088 27.0732 13.4367C26.9453 13.5645 26.7719 13.6364 26.591 13.6364H19.7729C19.592 13.6364 19.4186 13.5645 19.2907 13.4367C19.1629 13.3088 19.091 13.1354 19.091 12.9545V3.40909C19.091 3.22826 19.1629 3.05484 19.2907 2.92697C19.4186 2.79911 19.592 2.72727 19.7729 2.72727H26.591C26.7719 2.72727 26.9453 2.79911 27.0732 2.92697C27.201 3.05484 27.2729 3.22826 27.2729 3.40909V12.9545Z" fill="#E5C584"/>
<path d="M26.591 19.0918H19.7729C18.8687 19.0918 18.0016 19.451 17.3623 20.0903C16.7229 20.7296 16.3638 21.5967 16.3638 22.5009V26.5918C16.3638 27.4959 16.7229 28.3631 17.3623 29.0024C18.0016 29.6417 18.8687 30.0009 19.7729 30.0009H26.591C27.4952 30.0009 28.3623 29.6417 29.0016 29.0024C29.641 28.3631 30.0001 27.4959 30.0001 26.5918V22.5009C30.0001 21.5967 29.641 20.7296 29.0016 20.0903C28.3623 19.451 27.4952 19.0918 26.591 19.0918ZM27.2729 26.5918C27.2729 26.7726 27.201 26.9461 27.0732 27.0739C26.9453 27.2018 26.7719 27.2736 26.591 27.2736H19.7729C19.592 27.2736 19.4186 27.2018 19.2907 27.0739C19.1629 26.9461 19.091 26.7726 19.091 26.5918V22.5009C19.091 22.3201 19.1629 22.1466 19.2907 22.0188C19.4186 21.8909 19.592 21.8191 19.7729 21.8191H26.591C26.7719 21.8191 26.9453 21.8909 27.0732 22.0188C27.201 22.1466 27.2729 22.3201 27.2729 22.5009V26.5918Z" fill="#E5C584"/>
</svg>
