<svg id="logo" fill="#fff"  width="125" height="12" viewBox="0 0 125 12"  xmlns="http://www.w3.org/2000/svg">
<path d="M0.884906 0.584V11H12.0009V8.578H4.10491V6.87H11.6789V4.49H4.10491V2.95H11.8609V0.584H0.884906ZM26.8236 0.584H23.4356L19.8376 8.242L16.0016 0.584H12.3056L17.7236 11H21.7836L26.8236 0.584ZM41.056 0.584H37.668L34.07 8.242L30.234 0.584H26.538L31.956 11H36.016L41.056 0.584ZM50.4461 11H53.9601L48.3881 0.584H44.1601L38.8961 11H42.2141L43.1521 9.096H49.4661L50.4461 11ZM44.3141 6.744L46.2461 2.838L48.2621 6.744H44.3141ZM71.386 7.696V7.5C71.386 5.428 69.804 4.49 65.884 4.406L64.134 4.378C61.992 4.35 61.726 3.916 61.726 3.482C61.726 3.048 61.908 2.586 64.428 2.586H64.652C67.368 2.586 67.606 3.426 67.662 3.832H71.05V3.692C71.05 2.124 69.93 0.402 65.002 0.402H64.036C59.304 0.402 58.366 2.026 58.366 3.58V3.706C58.366 5.33 59.556 6.646 63.448 6.758L65.24 6.8C67.648 6.856 67.97 7.248 67.97 7.85C67.97 8.41 67.662 8.956 64.918 8.956H64.722C62.034 8.956 61.67 7.92 61.628 7.304H58.226V7.458C58.226 8.83 58.856 11.182 64.316 11.182H65.282C70.518 11.182 71.386 9.418 71.386 7.696ZM80.2145 7.528C83.9385 7.528 85.0725 5.974 85.0725 4.112V3.972C85.0725 2.068 83.9525 0.584 80.2145 0.584H72.4025V11H75.6645V7.528H80.2145ZM75.6645 2.95H80.1585C81.1945 2.95 81.6705 3.356 81.6705 4.056V4.098C81.6705 4.798 81.1805 5.19 80.1585 5.19H75.6645V2.95ZM94.907 11H98.421L92.849 0.584H88.621L83.357 11H86.675L87.613 9.096H93.927L94.907 11ZM88.775 6.744L90.707 2.838L92.723 6.744H88.775ZM112.19 6.954V6.8H108.732C108.662 7.038 108.312 8.648 104.938 8.648C101.9 8.648 101.074 7.01 101.074 5.792V5.624C101.074 4.322 101.788 2.922 104.91 2.922C108.228 2.922 108.634 4.378 108.718 4.658H112.176V4.504C112.162 3.286 111.252 0.402 105.204 0.402H104.63C98.4843 0.402 97.6583 3.664 97.6583 5.554V5.96C97.6583 7.822 98.5963 11.182 104.63 11.182H105.204C111.168 11.182 112.19 8.27 112.19 6.954ZM113.24 0.584V11H124.356V8.578H116.46V6.87H124.034V4.49H116.46V2.95H124.216V0.584H113.24Z" />
</svg>
