<svg width="24" height="26" viewBox="0 0 24 26" fill="none" xmlns="http://www.w3.org/2000/svg">
<path d="M20.9898 4.6129C20.3284 4.61462 19.6943 4.87711 19.2252 5.34342L18.0334 6.53523L17.9105 6.41277C17.8419 6.3441 17.7517 6.30133 17.6551 6.29177C17.5585 6.28221 17.4616 6.30645 17.3809 6.36035L14.879 8.02855C14.8001 7.9853 14.7095 7.96798 14.6202 7.97905C14.5308 7.99011 14.4472 8.02899 14.3812 8.09019L13.5937 8.87816C13.4052 9.06582 13.2558 9.28897 13.1541 9.5347C13.0524 9.78044 13.0004 10.0439 13.0011 10.3098V10.7292L12.5545 11.1754C12.4739 11.0602 12.3837 10.952 12.2849 10.8521L11.8718 10.439C12.0653 10.209 12.1683 9.91628 12.1615 9.61576C12.1547 9.31524 12.0386 9.0275 11.8349 8.80645C11.9466 8.685 12.033 8.54248 12.089 8.38723C12.1449 8.23198 12.1693 8.06712 12.1608 7.90232C12.1522 7.73751 12.1109 7.57607 12.0392 7.42745C11.9674 7.27882 11.8668 7.14601 11.7431 7.03677V6.24839C12.2472 6.15869 12.7115 5.91592 13.0728 5.5531L13.5937 5.03226H13.6302C13.9082 5.03226 14.1749 4.9218 14.3715 4.72519C14.5681 4.52858 14.6786 4.26192 14.6786 3.98387C14.6786 3.70582 14.5681 3.43916 14.3715 3.24255C14.1749 3.04594 13.9082 2.93548 13.6302 2.93548H12.336L12.2127 2.81261C11.9696 2.56773 11.8127 2.25038 11.7657 1.90848C12.0201 1.60992 12.1606 1.23096 12.1624 0.83871V0.419355C12.1624 0.308135 12.1182 0.20147 12.0396 0.122826C11.961 0.0441819 11.8543 0 11.7431 0H9.22694C9.11572 0 9.00906 0.0441819 8.93041 0.122826C8.85177 0.20147 8.80758 0.308135 8.80758 0.419355V0.83871C8.80922 1.23098 8.94977 1.60999 9.20429 1.90848C9.15705 2.25056 8.99969 2.56794 8.756 2.81261L8.63355 2.93548H7.33984C7.06179 2.93548 6.79513 3.04594 6.59852 3.24255C6.40191 3.43916 6.29146 3.70582 6.29146 3.98387C6.29146 4.26192 6.40191 4.52858 6.59852 4.72519C6.79513 4.9218 7.06179 5.03226 7.33984 5.03226H7.37591L7.89675 5.5531C8.25834 5.9158 8.72273 6.15853 9.22694 6.24839V7.03635C9.10324 7.14563 9.00258 7.27847 8.93084 7.42711C8.85911 7.57575 8.81773 7.73721 8.80914 7.90203C8.80055 8.06686 8.82492 8.23174 8.88081 8.38703C8.93671 8.54233 9.02302 8.68491 9.13468 8.80645C8.93085 9.02752 8.81465 9.31535 8.80786 9.61597C8.80107 9.91659 8.90415 10.2094 9.09778 10.4394L8.68471 10.8525C8.58604 10.9531 8.49637 11.0621 8.41675 11.1783L7.96887 10.7292V10.3098C7.96958 10.0439 7.91758 9.78044 7.81588 9.5347C7.71417 9.28897 7.56478 9.06582 7.37633 8.87816L6.58878 8.09019C6.54983 8.0512 6.50358 8.02027 6.45267 7.99917C6.40176 7.97806 6.34719 7.9672 6.29208 7.9672C6.23697 7.9672 6.18241 7.97806 6.1315 7.99917C6.08059 8.02027 6.03434 8.0512 5.99539 8.09019L3.89862 10.187C3.82 10.2656 3.77584 10.3723 3.77584 10.4835C3.77584 10.5946 3.82 10.7013 3.89862 10.7799L4.68617 11.5679C5.06656 11.9464 5.58083 12.1596 6.11742 12.1613H6.53678L8.5111 14.1356L8.52829 14.1184C8.57728 14.1847 8.62963 14.2483 8.68513 14.3092L8.73462 14.3587C8.53994 14.4409 8.36923 14.5709 8.23836 14.7368C8.10749 14.9027 8.02073 15.099 7.98616 15.3075C7.95158 15.5159 7.97032 15.7297 8.04062 15.929C8.11092 16.1283 8.2305 16.3065 8.38823 16.4471V16.8161C8.38606 17.4831 8.12101 18.1223 7.65058 18.595L6.02391 20.2217C5.45717 20.7864 5.11067 21.5348 5.04681 22.3323C4.17824 21.9976 3.4315 21.4076 2.90506 20.6399C2.37862 19.8723 2.0972 18.9631 2.09791 18.0323V13.4194C2.35233 13.4204 2.60104 13.344 2.81097 13.2003C3.02091 13.0565 3.18211 12.8523 3.27316 12.6147C3.3642 12.3771 3.38076 12.1175 3.32065 11.8703C3.26053 11.623 3.12658 11.4 2.93662 11.2307V8.89829C3.06909 8.78117 3.17503 8.63713 3.24735 8.47577C3.31968 8.31443 3.35672 8.13949 3.35601 7.96268C3.35529 7.78586 3.31684 7.61123 3.24321 7.45047C3.16958 7.28971 3.06248 7.14652 2.92907 7.03048L2.51475 2.89355C2.50436 2.79018 2.45597 2.69435 2.37896 2.62462C2.30195 2.55489 2.2018 2.51623 2.09791 2.51613H1.2592C1.15488 2.51561 1.0541 2.55399 0.976562 2.62377C0.89902 2.69356 0.850274 2.78975 0.839843 2.89355L0.425939 7.03006C0.292639 7.14633 0.185689 7.28971 0.112236 7.45062C0.038784 7.61154 0.000521329 7.78627 5.29025e-06 7.96315C-0.000510748 8.14003 0.0367317 8.31499 0.109244 8.47633C0.181756 8.63766 0.287868 8.78166 0.420488 8.89871V11.2299C0.230436 11.3992 0.0964152 11.6223 0.0362482 11.8696C-0.0239189 12.1169 -0.00738154 12.3766 0.0836608 12.6143C0.174703 12.852 0.335937 13.0563 0.545922 13.2001C0.755906 13.3439 1.00469 13.4204 1.2592 13.4194V18.0323C1.25811 19.1953 1.62977 20.3282 2.31966 21.2645C3.00955 22.2009 3.98136 22.8916 5.09252 23.2352C5.23767 24.0113 5.64938 24.7124 6.25649 25.2172C6.86361 25.722 7.628 25.9989 8.41758 26H12.552C13.2975 25.9985 14.0217 25.7511 14.6123 25.2962C15.2029 24.8413 15.627 24.2043 15.8188 23.4839H18.0334C19.4788 23.4823 20.8645 22.9075 21.8865 21.8854C22.9086 20.8634 23.4834 19.4776 23.485 18.0323V7.10806C23.4843 6.44651 23.2212 5.81224 22.7535 5.34445C22.2857 4.87667 21.6514 4.61357 20.9898 4.6129ZM2.09791 10.9032H1.2592V10.4839H2.09791V10.9032ZM2.09791 9.64516H1.2592V9.22581H2.09791V9.64516ZM1.2592 7.54839H2.09791C2.20913 7.54839 2.31579 7.59257 2.39444 7.67121C2.47308 7.74986 2.51726 7.85652 2.51726 7.96774C2.51726 8.07896 2.47308 8.18563 2.39444 8.26427C2.31579 8.34291 2.20913 8.3871 2.09791 8.3871H1.2592C1.14798 8.3871 1.04131 8.34291 0.962669 8.26427C0.884025 8.18563 0.839843 8.07896 0.839843 7.96774C0.839843 7.85652 0.884025 7.74986 0.962669 7.67121C1.04131 7.59257 1.14798 7.54839 1.2592 7.54839ZM1.72049 3.35484L2.05597 6.70968H1.30113L1.63662 3.35484H1.72049ZM0.839843 12.1613C0.839843 12.0501 0.884025 11.9434 0.962669 11.8648C1.04131 11.7861 1.14798 11.7419 1.2592 11.7419H2.09791C2.20913 11.7419 2.31579 11.7861 2.39444 11.8648C2.47308 11.9434 2.51726 12.0501 2.51726 12.1613C2.51726 12.2725 2.47308 12.3792 2.39444 12.4578C2.31579 12.5365 2.20913 12.5806 2.09791 12.5806H1.2592C1.14798 12.5806 1.04131 12.5365 0.962669 12.4578C0.884025 12.3792 0.839843 12.2725 0.839843 12.1613ZM17.5604 7.24897L17.913 7.60123L16.5422 9.65606L15.5043 8.61858L17.5604 7.24897ZM13.8398 10.3098C13.8408 9.99548 13.9655 9.69415 14.1871 9.47113L14.6786 8.98006L16.1819 10.4839L15.6905 10.9749C15.4675 11.1966 15.1661 11.3213 14.8517 11.3222H14.4324L13.8398 10.7292V10.3098ZM13.4205 11.4958L13.6658 11.7415L12.9927 12.4129C12.9831 12.2696 12.9608 12.1274 12.9261 11.9881L13.4205 11.4958ZM11.7431 15.9355H9.22694C9.11572 15.9355 9.00906 15.8913 8.93041 15.8127C8.85177 15.734 8.80758 15.6273 8.80758 15.5161C8.80758 15.4049 8.85177 15.2982 8.93041 15.2196C9.00906 15.141 9.11572 15.0968 9.22694 15.0968H11.7431C11.8543 15.0968 11.961 15.141 12.0396 15.2196C12.1182 15.2982 12.1624 15.4049 12.1624 15.5161C12.1624 15.6273 12.1182 15.734 12.0396 15.8127C11.961 15.8913 11.8543 15.9355 11.7431 15.9355ZM10.0656 7.54839H10.9044C11.0156 7.54839 11.1222 7.59257 11.2009 7.67121C11.2795 7.74986 11.3237 7.85652 11.3237 7.96774C11.3237 8.07896 11.2795 8.18563 11.2009 8.26427C11.1222 8.34291 11.0156 8.3871 10.9044 8.3871H10.0656C9.95443 8.3871 9.84776 8.34291 9.76912 8.26427C9.69048 8.18563 9.64629 8.07896 9.64629 7.96774C9.64629 7.85652 9.69048 7.74986 9.76912 7.67121C9.84776 7.59257 9.95443 7.54839 10.0656 7.54839ZM10.9044 10.0645H10.0656C9.95443 10.0645 9.84776 10.0203 9.76912 9.94169C9.69048 9.86305 9.64629 9.75638 9.64629 9.64516C9.64629 9.53394 9.69048 9.42728 9.76912 9.34863C9.84776 9.26999 9.95443 9.22581 10.0656 9.22581H10.9044C11.0156 9.22581 11.1222 9.26999 11.2009 9.34863C11.2795 9.42728 11.3237 9.53394 11.3237 9.64516C11.3237 9.75638 11.2795 9.86305 11.2009 9.94169C11.1222 10.0203 11.0156 10.0645 10.9044 10.0645ZM10.9044 6.70968H10.0656V6.29032H10.9044V6.70968ZM9.64629 0.83871H11.3237C11.3237 1.06115 11.2353 1.27448 11.0781 1.43177C10.9208 1.58906 10.7074 1.67742 10.485 1.67742C10.2626 1.67742 10.0492 1.58906 9.89195 1.43177C9.73466 1.27448 9.64629 1.06115 9.64629 0.83871ZM9.93984 2.41716C10.2914 2.54857 10.6786 2.54857 11.0302 2.41716C11.0865 2.59843 11.1641 2.77241 11.2612 2.93548H9.70962C9.80648 2.77237 9.88376 2.59839 9.93984 2.41716ZM7.13017 3.98387C7.13017 3.92826 7.15226 3.87493 7.19158 3.83561C7.2309 3.79628 7.28423 3.77419 7.33984 3.77419H13.6302C13.6858 3.77419 13.7391 3.79628 13.7784 3.83561C13.8178 3.87493 13.8398 3.92826 13.8398 3.98387C13.8398 4.03948 13.8178 4.09281 13.7784 4.13214C13.7391 4.17146 13.6858 4.19355 13.6302 4.19355H7.33984C7.28423 4.19355 7.2309 4.17146 7.19158 4.13214C7.15226 4.09281 7.13017 4.03948 7.13017 3.98387ZM12.3922 5.03226C12.0896 5.30149 11.699 5.45066 11.2939 5.45161H9.67565C9.27065 5.4505 8.88003 5.30136 8.57736 5.03226H12.3922ZM9.27768 11.445L9.81991 10.9032H11.1497L11.6919 11.445C11.993 11.7462 12.1622 12.1546 12.1622 12.5804C12.1622 13.0063 11.993 13.4147 11.6919 13.7158L11.1497 14.2581H9.81991L9.27726 13.7158C8.97634 13.4146 8.80731 13.0062 8.80731 12.5804C8.80731 12.1546 8.97634 11.7463 9.27726 11.445H9.27768ZM7.98439 12.4221L7.30378 11.7419L7.54952 11.4958L8.04771 11.9935C8.01383 12.1342 7.99264 12.2777 7.98439 12.4221ZM5.27871 10.9749L4.78723 10.4839L6.29146 8.98006L6.78252 9.47113C7.00406 9.69415 7.12881 9.99548 7.12975 10.3098V10.7292L6.53678 11.3226H6.11742C5.80299 11.3216 5.50162 11.1967 5.27871 10.9749ZM12.552 25.1613H8.41758C7.91412 25.1612 7.42198 25.0119 7.00337 24.7322C6.58476 24.4525 6.25849 24.0549 6.06581 23.5898C5.87312 23.1246 5.82267 22.6128 5.92083 22.119C6.01899 21.6252 6.26136 21.1716 6.61729 20.8155L8.24397 19.1888C8.55651 18.8779 8.80431 18.5082 8.97304 18.1009C9.14176 17.6936 9.22806 17.257 9.22694 16.8161V16.7742H11.7431V16.8161C11.742 17.2569 11.8283 17.6935 11.9971 18.1007C12.1658 18.5079 12.4135 18.8776 12.726 19.1884L14.3527 20.8151C14.7088 21.1712 14.9513 21.6249 15.0496 22.1188C15.1478 22.6127 15.0973 23.1246 14.9046 23.5899C14.7118 24.0551 14.3854 24.4527 13.9667 24.7324C13.5479 25.0122 13.0556 25.1614 12.552 25.1613ZM22.6463 18.0323C22.645 19.2553 22.1585 20.4278 21.2937 21.2926C20.4289 22.1574 19.2564 22.6438 18.0334 22.6452H15.9366C15.9366 22.6351 15.9366 22.6255 15.9366 22.6158C15.9379 22.1712 15.851 21.7307 15.681 21.3198C15.511 20.9089 15.2612 20.5359 14.9461 20.2221L13.3194 18.5955C12.8489 18.1226 12.5838 17.4832 12.5818 16.8161V16.4471C12.7397 16.3066 12.8595 16.1284 12.93 15.9291C13.0004 15.7298 13.0193 15.5159 12.9847 15.3073C12.9502 15.0988 12.8634 14.9023 12.7324 14.7364C12.6015 14.5705 12.4306 14.4404 12.2358 14.3583L12.2853 14.3088C12.3436 14.2505 12.3989 14.1893 12.4505 14.1264L12.4593 14.1352L14.4328 12.1613H14.8522C15.389 12.1599 15.9036 11.9468 16.2843 11.5683L17.0722 10.7808C17.1381 10.7173 17.1802 10.6331 17.1917 10.5423C17.2031 10.4516 17.1832 10.3596 17.1351 10.2817L18.8021 7.78113C18.8559 7.70046 18.88 7.60363 18.8705 7.50714C18.8609 7.41065 18.8182 7.32046 18.7496 7.2519L18.6264 7.12903L19.8186 5.93681C20.0502 5.70516 20.3454 5.54741 20.6667 5.4835C20.988 5.41959 21.3211 5.45239 21.6237 5.57776C21.9264 5.70313 22.1851 5.91543 22.3671 6.18782C22.5491 6.46021 22.6463 6.78046 22.6463 7.10806V18.0323Z" fill="#070707"/>
</svg>
