<svg width="19" height="20" viewBox="0 0 19 20" fill="none" xmlns="http://www.w3.org/2000/svg">
<path d="M18 1.44354e-09H0.666711C0.539268 -8.38356e-06 0.414493 0.0365125 0.307167 0.105236C0.199842 0.17396 0.114463 0.272006 0.0611462 0.38776C0.00782916 0.503514 -0.0111921 0.632125 0.00633583 0.758357C0.0238638 0.884589 0.0772064 1.00315 0.160044 1.1L8.66671 10.9133V18.6667H7.33338C7.15657 18.6667 6.987 18.7369 6.86197 18.8619C6.73695 18.987 6.66671 19.1565 6.66671 19.3333C6.66671 19.5101 6.73695 19.6797 6.86197 19.8047C6.987 19.9298 7.15657 20 7.33338 20H11.3334C11.5102 20 11.6798 19.9298 11.8048 19.8047C11.9298 19.6797 12 19.5101 12 19.3333C12 19.1565 11.9298 18.987 11.8048 18.8619C11.6798 18.7369 11.5102 18.6667 11.3334 18.6667H10V10.9133L18.5067 1.1C18.5896 1.00315 18.6429 0.884589 18.6604 0.758357C18.6779 0.632125 18.6589 0.503514 18.6056 0.38776C18.5523 0.272006 18.4669 0.17396 18.3596 0.105236C18.2523 0.0365125 18.1275 -8.38356e-06 18 1.44354e-09ZM12.5134 6C11.8766 5.8391 11.2886 5.52564 10.8 5.08667C11.3952 4.84581 12.0257 4.70393 12.6667 4.66667C12.9556 4.67512 13.2413 4.72912 13.5134 4.82667L12.5134 6ZM9.44004 5.74667C10.0787 6.29337 10.7871 6.75293 11.5467 7.11333L9.33338 9.64667L4.60004 4.18667C5.05773 4.06954 5.52766 4.00689 6.00004 4C7.08671 4 8.10671 4.70667 9.06005 5.44L9.44004 5.74667ZM14.4534 3.74667C13.8891 3.49783 13.283 3.3576 12.6667 3.33333C11.5889 3.40442 10.5345 3.68047 9.56005 4.14667C8.56256 3.28472 7.31461 2.76591 6.00004 2.66667C5.19661 2.68024 4.40027 2.81971 3.64004 3.08L2.12671 1.33333H16.54L14.4534 3.74667Z" fill="#070707"/>
</svg>
