<svg width="22" height="34" viewBox="0 0 22 34" fill="none" xmlns="http://www.w3.org/2000/svg">
<path fill-rule="evenodd" clip-rule="evenodd" d="M9.46931 6.36963C9.1025 6.56247 8.67378 6.25098 8.74384 5.84253L9.03618 4.13809L7.79782 2.931C7.50106 2.64173 7.66483 2.13775 8.07494 2.07816L9.78629 1.82947L10.5516 0.278717C10.735 -0.0929056 11.265 -0.0929056 11.4484 0.278717L12.2137 1.82947L13.9251 2.07816C14.3352 2.13775 14.4989 2.64173 14.2022 2.931L12.9638 4.13809L13.2562 5.84253C13.3262 6.25098 12.8975 6.56247 12.5307 6.36963L11 5.56488L9.46931 6.36963ZM10.7673 4.55743C10.913 4.48085 11.087 4.48085 11.2327 4.55743L12.0993 5.01303L11.9338 4.04803C11.906 3.88584 11.9597 3.72034 12.0776 3.60547L12.7787 2.92206L11.8098 2.78128C11.6469 2.75762 11.5061 2.65532 11.4333 2.50775L11 1.62976L10.5667 2.50775C10.4939 2.65532 10.3531 2.75762 10.1902 2.78128L9.22131 2.92206L9.92242 3.60547C10.0403 3.72034 10.094 3.88584 10.0662 4.04803L9.90071 5.01303L10.7673 4.55743ZM2.96931 8.36963C2.6025 8.56247 2.17378 8.25098 2.24384 7.84253L2.53618 6.13809L1.29782 4.931C1.00106 4.64173 1.16483 4.13775 1.57494 4.07816L3.28629 3.82947L4.05164 2.27872C4.23504 1.90709 4.76496 1.90709 4.94836 2.27872L5.71371 3.82947L7.42506 4.07816C7.83517 4.13775 7.99894 4.64173 7.70218 4.931L6.46382 6.13809L6.75616 7.84253C6.82622 8.25098 6.3975 8.56247 6.03069 8.36963L4.5 7.56488L2.96931 8.36963ZM4.26733 6.55743C4.413 6.48085 4.587 6.48085 4.73267 6.55743L5.59929 7.01303L5.43378 6.04803C5.40596 5.88584 5.45973 5.72034 5.57758 5.60547L6.27869 4.92206L5.30978 4.78128C5.14693 4.75762 5.00613 4.65532 4.9333 4.50775L4.5 3.62976L4.0667 4.50775C3.99387 4.65532 3.85307 4.75762 3.69022 4.78128L2.72131 4.92206L3.42242 5.60547C3.54027 5.72034 3.59404 5.88584 3.56622 6.04803L3.40071 7.01303L4.26733 6.55743ZM15.9693 8.36963C15.6025 8.56247 15.1738 8.25098 15.2438 7.84253L15.5362 6.13809L14.2978 4.931C14.0011 4.64173 14.1648 4.13775 14.5749 4.07816L16.2863 3.82947L17.0516 2.27872C17.235 1.90709 17.765 1.90709 17.9484 2.27872L18.7137 3.82947L20.4251 4.07816C20.8352 4.13775 20.9989 4.64173 20.7022 4.931L19.4638 6.13809L19.7562 7.84253C19.8262 8.25098 19.3975 8.56247 19.0307 8.36963L17.5 7.56488L15.9693 8.36963ZM17.2673 6.55743C17.413 6.48085 17.587 6.48085 17.7327 6.55743L18.5993 7.01303L18.4338 6.04803C18.406 5.88584 18.4597 5.72034 18.5776 5.60547L19.2787 4.92206L18.3098 4.78128C18.1469 4.75762 18.0061 4.65532 17.9333 4.50775L17.5 3.62976L17.0667 4.50775C16.9939 4.65532 16.8531 4.75762 16.6902 4.78128L15.7213 4.92206L16.4224 5.60547C16.5403 5.72034 16.594 5.88584 16.5662 6.04803L16.4007 7.01303L17.2673 6.55743ZM21.5 34H0.5C0.223857 34 0 33.7761 0 33.5V15.5C0 15.2239 0.223857 15 0.5 15H9V12.5C9 12.2239 9.22386 12 9.5 12H21.5C21.7761 12 22 12.2239 22 12.5V33.5C22 33.7761 21.7761 34 21.5 34ZM18 33H21V13H10V33H13V27.5C13 27.2239 13.2239 27 13.5 27H17.5C17.7761 27 18 27.2239 18 27.5V33ZM9 33V16H1V33H9ZM14 33H17V28H14V33ZM12.5 24C12.2239 24 12 23.7761 12 23.5C12 23.2239 12.2239 23 12.5 23H14C14.2761 23 14.5 23.2239 14.5 23.5C14.5 23.7761 14.2761 24 14 24H12.5ZM17 24C16.7239 24 16.5 23.7761 16.5 23.5C16.5 23.2239 16.7239 23 17 23H18.5C18.7761 23 19 23.2239 19 23.5C19 23.7761 18.7761 24 18.5 24H17ZM12.5 17C12.2239 17 12 16.7761 12 16.5C12 16.2239 12.2239 16 12.5 16H14C14.2761 16 14.5 16.2239 14.5 16.5C14.5 16.7761 14.2761 17 14 17H12.5ZM17 17C16.7239 17 16.5 16.7761 16.5 16.5C16.5 16.2239 16.7239 16 17 16H18.5C18.7761 16 19 16.2239 19 16.5C19 16.7761 18.7761 17 18.5 17H17ZM12.5 20.5C12.2239 20.5 12 20.2761 12 20C12 19.7239 12.2239 19.5 12.5 19.5H14C14.2761 19.5 14.5 19.7239 14.5 20C14.5 20.2761 14.2761 20.5 14 20.5H12.5ZM17 20.5C16.7239 20.5 16.5 20.2761 16.5 20C16.5 19.7239 16.7239 19.5 17 19.5H18.5C18.7761 19.5 19 19.7239 19 20C19 20.2761 18.7761 20.5 18.5 20.5H17ZM3.5 29.5C3.22386 29.5 3 29.2761 3 29C3 28.7239 3.22386 28.5 3.5 28.5H6.5C6.77614 28.5 7 28.7239 7 29C7 29.2761 6.77614 29.5 6.5 29.5H3.5ZM3.5 25C3.22386 25 3 24.7761 3 24.5C3 24.2239 3.22386 24 3.5 24H6.5C6.77614 24 7 24.2239 7 24.5C7 24.7761 6.77614 25 6.5 25H3.5ZM3.5 20.5C3.22386 20.5 3 20.2761 3 20C3 19.7239 3.22386 19.5 3.5 19.5H6.5C6.77614 19.5 7 19.7239 7 20C7 20.2761 6.77614 20.5 6.5 20.5H3.5Z" fill="#070707"/>
</svg>
