<svg width="27" height="24" viewBox="0 0 27 24" fill="none" xmlns="http://www.w3.org/2000/svg">
<path d="M26.0024 6.99414H0.615587C0.279066 6.99414 0 7.27321 0 7.60973V20.7422C0 21.0788 0.279066 21.3578 0.615587 21.3578H1.20655V22.548V24.0007H2.43772V23.1635H24.1884V24.0007H25.4196V22.548V21.3578H26.0106C26.3471 21.3578 26.6262 21.0788 26.6262 20.7422V7.60973C26.618 7.265 26.3471 6.99414 26.0024 6.99414ZM1.23117 8.22531H25.3868V20.1267H24.7958H1.81393H1.22297V8.22531H1.23117ZM24.1884 21.9324H2.43772V21.3578H24.1884V21.9324Z" fill="#070707"/>
<path d="M23.9093 6.67296H24.886V5.44179H24.492C24.2048 2.84811 22.1446 0.779743 19.5427 0.492469V0H18.3116V0.500677C15.7179 0.787951 13.6495 2.84811 13.3622 5.44999H12.9683V6.68117H13.945H23.9093V6.67296ZM18.9271 1.69081C21.1268 1.69081 22.949 3.32417 23.2445 5.44179H14.6098C14.9135 3.32417 16.7357 1.69081 18.9271 1.69081Z" fill="#070707"/>
<path d="M10.818 6.67351H11.6223V5.44234H11.3925C11.1135 3.34114 9.44727 1.66674 7.34607 1.39588V1.08398H6.1149V1.39588C4.0137 1.67495 2.3393 3.34114 2.06844 5.44234H1.83862V6.67351H2.64299H10.818ZM6.72228 2.58602C8.4295 2.58602 9.84946 3.8254 10.1449 5.44234H3.30782C3.5951 3.81719 5.01505 2.58602 6.72228 2.58602Z" fill="#070707"/>
</svg>
