<svg width="26" height="24" viewBox="0 0 26 24" fill="none" xmlns="http://www.w3.org/2000/svg">
<path d="M25.5416 2.267H24.3023C23.9396 0.967255 22.7607 0 21.3401 0H8.34258C6.92192 0 5.71285 0.967255 5.38036 2.267H0V4.08061H5.22922V5.16877H6.43829V3.08313C6.43829 2.05542 7.28464 1.20907 8.31235 1.20907H18.6801C18.2872 1.72292 18.0454 2.38791 18.0454 3.08313V19.6171H11.7582V20.8262H19.2544V17.5617H24.393V4.08061H25.5114V2.267H25.5416ZM21.3098 1.17884C22.0655 1.17884 22.7003 1.63224 23.0025 2.23678H19.4358C19.7381 1.60202 20.3728 1.17884 21.1285 1.17884H21.3098ZM23.1839 16.3527H19.2544V4.08061H23.1839V16.3527Z" fill="#070707"/>
<path d="M8.37287 5.83398H5.25952V7.85917H8.37287V5.83398Z" fill="#070707"/>
<path d="M9.8841 9.82281L8.34254 8.28125H5.22918L3.68762 9.82281C3.02263 10.4878 2.65991 11.3644 2.65991 12.2712V20.5231C2.65991 22.4274 4.2317 23.9991 6.13599 23.9991H7.40551C9.30979 23.9991 10.8816 22.4274 10.8816 20.5231V12.3014C10.9118 11.3644 10.5491 10.4878 9.8841 9.82281ZM4.5642 10.6994L5.74304 9.52055H7.82868L9.00752 10.6994C9.4307 11.1226 9.67251 11.6969 9.67251 12.3014V13.6012H3.89921V12.3014C3.89921 11.6969 4.11079 11.1226 4.5642 10.6994ZM9.70274 14.508V16.382H3.89921V14.508H9.70274ZM7.43574 22.8203H6.16621C4.92692 22.8203 3.89921 21.7926 3.89921 20.5533V17.2888H9.70274V20.5533C9.70274 21.7926 8.67503 22.8203 7.43574 22.8203Z" fill="#070707"/>
</svg>
