<svg width="21" height="14" viewBox="0 0 21 14" fill="none" xmlns="http://www.w3.org/2000/svg">
<path d="M18.376 1.51253H18.1214V0.811569C18.1214 0.79947 18.1184 0.788113 18.1177 0.776015C18.1184 0.764163 18.1214 0.752806 18.1214 0.740708C18.1214 0.33159 17.7886 0 17.378 0H0.775768C0.458251 0 0.189374 0.199004 0.0827124 0.478003C0.0316035 0.578493 0 0.690833 0 0.811569V1.82263C0 2.04411 0.0108635 2.26311 0.0269122 2.48088C0.263692 5.69604 2.21916 8.43765 4.97385 9.79734C5.00867 10.5161 5.60098 11.0889 6.32836 11.0889C6.33651 11.0889 6.34441 11.0879 6.3528 11.0877C6.357 11.0877 6.3607 11.0889 6.3649 11.0889H11.7563C11.8182 11.0889 11.8775 11.079 11.9353 11.0644C12.5259 10.9536 12.9802 10.4608 13.0342 9.8519C14.6137 9.10033 15.9398 7.89989 16.84 6.41132C16.9104 6.43601 16.9849 6.45206 17.0637 6.45206H18.3757C19.7376 6.45206 20.8455 5.3442 20.8455 3.98229C20.8457 2.62062 19.7379 1.51253 18.376 1.51253ZM16.5899 1.9088C16.5437 5.92887 13.2611 9.18477 9.23095 9.18502H8.89047C4.86052 9.18477 1.57771 5.92887 1.53154 1.9088V1.48166H16.5896V1.9088H16.5899ZM18.376 5.09434H17.4923C17.7713 4.3919 17.9646 3.64675 18.0562 2.87049H18.376C18.989 2.87049 19.4878 3.36948 19.4878 3.98254C19.4878 4.5956 18.9893 5.09434 18.376 5.09434Z" fill="#070707"/>
<path d="M17.6103 12.0459H15.006H3.04305H0.510814C0.486123 12.0459 0.462914 12.0506 0.438965 12.0531C0.442915 12.7994 1.04906 13.4039 1.79668 13.4039H4.11386C4.15509 13.7394 4.4378 14.0004 4.78445 14.0004H13.3364C13.6831 14.0004 13.966 13.7394 14.007 13.4039H16.3639C17.1098 13.4039 17.7152 12.8019 17.7214 12.0573C17.6849 12.0513 17.6483 12.0459 17.6103 12.0459Z" fill="#070707"/>
</svg>
