<svg width="22" height="28" viewBox="0 0 22 28" fill="none" xmlns="http://www.w3.org/2000/svg">
<path d="M19.4099 22.1978L19.3374 22.1768C18.1173 21.846 17.2213 21.5308 16.6824 21.3222C14.7732 20.5882 14.2751 20.0585 14.1485 19.807C14.1443 19.7985 14.141 19.7894 14.1368 19.7797L14.1341 19.3936C15.2461 18.2897 16.2165 16.7917 16.6824 15.1656C18.1059 13.256 18.8389 11.2018 18.5665 9.34861C18.4351 8.46021 18.122 7.69459 17.7563 7.06273C18.0582 6.7882 18.2416 6.40784 18.2888 5.94081C18.381 5.01545 17.8861 3.7643 16.9649 2.59416C16.0245 1.39934 14.8305 0.518984 13.6907 0.17932C13.2907 0.0603203 12.8355 0 12.3364 0C10.5247 0 8.23561 0.803195 6.36174 2.09552C4.17424 3.60511 2.79683 5.56948 2.48238 7.62809C2.03793 10.5394 2.68401 12.4816 3.30427 13.5979C3.75386 14.4072 4.25863 14.9195 4.56985 15.187C5.0371 16.8062 6.00972 18.294 7.11714 19.3937L7.11446 19.7798C7.11014 19.7894 7.10664 19.7985 7.10238 19.8071C7.02302 19.9642 6.80001 20.2291 6.17963 20.5845C6.17963 20.5845 5.18077 21.0874 4.56799 21.3228C4.03047 21.5309 3.13354 21.8461 1.92423 22.1742L1.84138 22.1978C0.741016 22.5661 0 23.5977 0 24.7622V28H21.2504V24.7622C21.2504 23.5977 20.5111 22.5661 19.4099 22.1978ZM16.9532 12.5377C16.8025 10.5091 15.9426 8.86446 14.6617 7.77875C15.259 7.68649 15.8825 7.61097 16.5329 7.55196C16.5832 7.54742 16.632 7.54124 16.6798 7.53457C17.0095 8.07581 17.2975 8.74278 17.4122 9.51858C17.5558 10.497 17.4019 11.5069 16.9532 12.5377ZM4.28952 12.9679C3.55469 11.6031 3.32823 9.81772 3.63595 7.80396C4.22384 3.95385 9.2406 1.16665 12.3364 1.16665C12.7218 1.16665 13.0661 1.21089 13.3571 1.29752C14.2589 1.56641 15.2648 2.32077 16.0482 3.31587C16.7649 4.22625 17.1891 5.21172 17.1274 5.82504C17.1011 6.08776 16.9982 6.33812 16.4277 6.38985C13.6119 6.6459 11.2452 7.20645 9.39422 8.05623C7.8528 8.76318 6.65312 9.67597 5.82854 10.7678C5.07391 11.7659 4.75513 12.7491 4.6305 13.5194C4.51686 13.3587 4.40076 13.1749 4.28952 12.9679ZM5.85594 15.3688L5.75241 14.8187C5.75159 14.8144 5.67979 14.3938 5.77303 13.7683C5.89526 12.9392 6.23438 12.1564 6.78043 11.4433C7.49219 10.5123 8.54492 9.72519 9.90784 9.10383C10.8164 8.68962 11.864 8.34892 13.0414 8.08352C13.4966 8.32481 13.9127 8.6363 14.2751 9.0143C14.7539 9.51218 15.1286 10.1081 15.3892 10.7863C15.6691 11.513 15.8106 12.3178 15.8106 13.1789C15.8106 14.7704 15.0852 16.5333 13.8199 18.0179C12.5954 19.4532 11.3058 20.1078 10.6258 20.1078C9.94542 20.1078 8.65517 19.4532 7.43061 18.0179C6.7293 17.195 6.19423 16.2866 5.85594 15.3688ZM13.7738 21.1126C13.3395 21.6702 12.6441 22.4921 11.7337 23.3414C11.2962 23.75 10.7793 24.1907 10.1965 24.618C9.23366 24.1017 8.44654 23.3001 7.85198 22.2305C7.6399 21.8509 7.48628 21.4922 7.37505 21.193C7.82808 20.8515 8.02698 20.5626 8.14253 20.3363L8.14335 20.3336L8.14494 20.3309C8.15276 20.3164 8.15861 20.303 8.16479 20.2891C9.02344 20.911 9.89335 21.2745 10.6257 21.2745C11.3573 21.2745 12.228 20.9105 13.0864 20.2891C13.0918 20.3009 13.0988 20.3148 13.1051 20.3298L13.1062 20.3319L13.1078 20.3335C13.2129 20.5426 13.391 20.8054 13.7738 21.1126ZM1.16648 26.8328V24.7622C1.16648 24.1054 1.57823 23.5253 2.19346 23.3108L2.24142 23.2969C3.49655 22.9559 4.42706 22.6278 4.98761 22.4122C5.53716 22.2015 5.98916 21.9999 6.36262 21.8101C6.47784 22.098 6.62506 22.4219 6.81138 22.7602C7.4025 23.8368 8.19115 24.7091 9.12784 25.3342C7.9853 26.0258 6.65831 26.6038 5.20133 26.8328H1.16648V26.8328ZM20.0837 26.8328H8.83985C9.04061 26.7309 9.23956 26.6231 9.43874 26.5095C9.73361 26.3395 10.0274 26.1562 10.3188 25.9605C10.3258 25.9626 10.3325 25.9663 10.3394 25.9691L10.3504 25.939C11.1016 25.4323 11.8388 24.842 12.5524 24.1735C13.5593 23.2309 14.3094 22.3329 14.7625 21.7436C15.1586 21.9527 15.6503 22.1757 16.2621 22.4106C16.8196 22.6261 17.7493 22.9542 19.0168 23.2984L19.0544 23.3097C19.6704 23.5225 20.0837 24.1032 20.0837 24.7621V26.8328Z" fill="#070707"/>
</svg>
