<svg width="26" height="18" viewBox="0 0 26 18" fill="none" xmlns="http://www.w3.org/2000/svg">
<path d="M21.318 8.65761H3.74606C2.41664 8.65761 1.32672 9.74786 1.32672 11.0769V13.948C8.79187 13.948 16.257 13.948 23.7225 13.948V11.0621C23.7225 9.74112 22.6386 8.65761 21.318 8.65761ZM13.2558 7.33122V3.23838C13.2558 2.87238 13.5526 2.57519 13.919 2.57519H18.9756C19.3419 2.57519 19.6388 2.87238 19.6388 3.23838V7.33122H20.6396V1.32639H4.39442V7.33122H5.39494V3.23838C5.39494 2.87238 5.69213 2.57519 6.05847 2.57519H11.1147C11.4811 2.57519 11.7779 2.87238 11.7779 3.23838V7.33122H13.2558ZM18.3124 7.33122V3.90191H14.5822V7.33122H18.3124ZM10.4515 7.33122V3.90191H6.72166V7.33122H10.4515ZM20.7617 15.2744L21.1476 16.6733H23.7225V15.2744H20.7617ZM25.0489 14.6112V17.3365C25.0489 17.7028 24.7517 18 24.3857 18H20.6447V17.998C20.3546 17.998 20.0884 17.806 20.0075 17.5129L19.3898 15.2744H5.65907L5.04142 17.5129C4.96046 17.806 4.6943 17.998 4.4042 17.998V18H0.663193C0.297189 18 0 17.7028 0 17.3365V11.0769C0 9.26042 1.31424 7.71679 3.06769 7.39329V0.663194C3.06769 0.297189 3.36488 0 3.73088 0H21.3028C21.6692 0 21.966 0.297189 21.966 0.663194V7.38789C23.7259 7.69891 25.0489 9.24254 25.0489 11.0621V14.6112ZM1.32639 15.2744V16.6733H3.90124L4.28714 15.2744H1.32639Z" fill="#070707"/>
</svg>
