<svg width="17" height="22" viewBox="0 0 17 22" fill="none" xmlns="http://www.w3.org/2000/svg">
<path d="M15.9048 3.61905H15.7143L15.2381 0L1.61905 0.761905L1.23809 3.61905H1.04762H0V4.85714H1.23809L3.42857 21.4286L3.52381 22H13.4286L15.7143 4.85714H16.9524V3.61905H15.9048ZM2.7619 2L14.1905 1.33333L14.4762 3.61905H2.47619L2.7619 2ZM4.57143 20.6667L2.47619 4.85714H14.381L14.1905 6.28571C11.1429 6.28571 8.7619 8.7619 8.7619 11.7143C8.7619 14.1905 10.4762 16.2857 12.8571 16.9524L12.381 20.6667H4.57143ZM14.0952 7.61905L13.0476 15.8095C11.2381 15.3333 10.0952 13.7143 10.0952 11.8095C10 9.52381 11.8095 7.61905 14.0952 7.61905Z" fill="#070707"/>
</svg>
