<svg width="39" height="40" viewBox="0 0 39 40" fill="none" xmlns="http://www.w3.org/2000/svg">
<path d="M35.9011 20.6904L22.6779 13.1349C22.58 13.0791 22.4687 13.0508 22.356 13.053C22.2433 13.0553 22.1333 13.088 22.0377 13.1477C21.8219 13.2818 20.9041 13.7294 20.3599 13.4432C19.8647 13.1835 19.7253 12.3404 19.6952 11.6794C19.6903 11.5709 19.6571 11.4656 19.5989 11.3738C19.5408 11.2821 19.4597 11.2072 19.3637 11.1564L13.0384 7.8094C12.9452 7.76002 12.8409 7.73514 12.7354 7.73708C12.6299 7.73903 12.5266 7.76773 12.4353 7.8205L12.4337 7.82141C12.3422 7.87457 12.2658 7.95016 12.2116 8.04104C12.1574 8.13192 12.1273 8.2351 12.124 8.34085L11.6685 22.8998C11.6645 23.0252 11.6984 23.149 11.7659 23.2548C11.8334 23.3606 11.9313 23.4436 12.0468 23.4928C12.4399 23.661 13.5829 24.3267 13.668 25.1537C13.7508 25.9608 12.8223 26.7894 12.0292 27.3422C11.9498 27.3975 11.8845 27.4705 11.8382 27.5554C11.7919 27.6403 11.766 27.7348 11.7626 27.8315L11.5132 34.7514C11.5076 34.909 11.5618 35.0628 11.665 35.1819C11.7683 35.3011 11.9128 35.3766 12.0695 35.3935C17.1116 35.6706 22.1277 34.499 26.5254 32.0172C30.7236 29.5681 34.08 25.9031 36.1514 21.5063C36.2211 21.364 36.234 21.2004 36.1875 21.0489C36.141 20.8974 36.0386 20.7692 35.9011 20.6904ZM12.998 28.1812C14.3757 27.1552 15.0179 26.095 14.9083 25.026C14.7758 23.7382 13.5671 22.9001 12.9269 22.5427L13.3387 9.37929L18.475 12.0966C18.5947 13.3317 19.0329 14.1552 19.7803 14.5473C20.1941 14.718 20.6413 14.7926 21.0881 14.7653C21.5349 14.738 21.9697 14.6096 22.3597 14.3898L30.4808 19.0298C24.2331 29.8375 15.2206 29.52 12.9596 29.2474L12.998 28.1812ZM12.7815 34.1886L12.915 30.4847C16.5997 30.778 20.2859 29.9373 23.479 28.0753C26.8755 26.0354 29.6672 23.1273 31.5669 19.6504L34.7685 21.4797C28.2759 34.0298 15.6302 34.2967 12.7815 34.1886Z" fill="#070707"/>
<path d="M19.7499 22.6839C20.3649 22.329 20.8608 21.7996 21.1749 21.1629C21.489 20.5261 21.6072 19.8105 21.5146 19.1065C21.422 18.4025 21.1227 17.7418 20.6546 17.2079C20.1865 16.6741 19.5705 16.291 18.8847 16.1072C18.1988 15.9234 17.4739 15.9471 16.8015 16.1753C16.1292 16.4035 15.5396 16.826 15.1073 17.3893C14.6751 17.9527 14.4196 18.6315 14.3732 19.34C14.3268 20.0485 14.4915 20.7549 14.8465 21.3698C15.3233 22.1934 16.1073 22.7943 17.0265 23.0407C17.9458 23.287 18.9252 23.1587 19.7499 22.6839ZM16.7835 17.546C17.1848 17.3142 17.6458 17.2066 18.1082 17.2368C18.5706 17.2671 19.0137 17.4337 19.3813 17.7158C19.749 17.9978 20.0248 18.3825 20.1738 18.8213C20.3228 19.2601 20.3384 19.7332 20.2185 20.1808C20.0986 20.6284 19.8487 21.0304 19.5004 21.336C19.152 21.6416 18.7209 21.837 18.2614 21.8975C17.802 21.9581 17.335 21.881 16.9193 21.6761C16.5037 21.4712 16.1582 21.1476 15.9265 20.7463C15.6165 20.2081 15.5327 19.5689 15.6933 18.9689C15.854 18.369 16.2461 17.8573 16.7835 17.546L16.7835 17.546Z" fill="#070707"/>
<path d="M26.6137 22.9653C27.0519 22.7123 27.4052 22.3351 27.629 21.8814C27.8528 21.4276 27.9371 20.9177 27.871 20.4161C27.805 19.9144 27.5918 19.4437 27.2582 19.0632C26.9246 18.6828 26.4857 18.4099 25.997 18.2789C25.5083 18.1479 24.9917 18.1648 24.5126 18.3274C24.0335 18.49 23.6134 18.791 23.3054 19.1924C22.9974 19.5938 22.8153 20.0775 22.7822 20.5824C22.749 21.0872 22.8664 21.5906 23.1193 22.0288C23.4591 22.6157 24.0178 23.0439 24.6729 23.2194C25.328 23.395 26.0259 23.3036 26.6137 22.9653ZM24.6791 19.6144C24.9037 19.4848 25.1617 19.4246 25.4204 19.4415C25.6792 19.4585 25.9271 19.5517 26.1329 19.7096C26.3386 19.8675 26.4929 20.0828 26.5763 20.3283C26.6597 20.5739 26.6683 20.8387 26.6012 21.0892C26.5341 21.3396 26.3942 21.5646 26.1992 21.7356C26.0043 21.9066 25.763 22.0159 25.5059 22.0497C25.2487 22.0836 24.9874 22.0404 24.7548 21.9257C24.5222 21.8109 24.3289 21.6298 24.1993 21.4052C24.0259 21.104 23.979 20.7464 24.069 20.4107C24.1589 20.0749 24.3784 19.7886 24.6791 19.6144Z" fill="#070707"/>
</svg>
