<svg width="30" height="24" viewBox="0 0 30 24" fill="none" xmlns="http://www.w3.org/2000/svg">
<path d="M27.9153 15.9065V13.4558L28.3673 8.88777L29.0612 1.87543L27.8707 1.75736C27.2925 1.69935 26.7321 1.87079 26.2856 2.23746C25.8386 2.60385 25.5613 3.12224 25.5044 3.69748L25.0582 8.20693C25.0014 8.78189 25.172 9.34495 25.5381 9.79169C25.9047 10.2387 26.4231 10.516 26.9981 10.5729L27.0343 10.5764L26.8179 12.764H22.9478L22.2714 6.89572H19.2254V6.41505C19.2254 4.37078 17.9313 2.60414 16.0553 1.95695C16.0832 1.83917 16.0977 1.71791 16.0977 1.59549C16.0977 0.715652 15.3817 0 14.5022 0C13.6223 0 12.9067 0.715652 12.9067 1.59549C12.9067 1.71791 12.9212 1.83917 12.949 1.95724C11.073 2.60414 9.77893 4.37107 9.77893 6.41534V6.89601H6.73269L6.0562 12.764H2.24326L2.02686 10.5767L2.06283 10.5732C2.63808 10.5163 3.15647 10.239 3.52285 9.79198C3.88923 9.34495 4.05981 8.78218 4.00295 8.20722L3.55679 3.69777C3.49993 3.12253 3.22261 2.60414 2.77558 2.23775C2.32855 1.87137 1.76636 1.70051 1.19053 1.75765L0 1.87572L0.87201 10.691L1.14556 13.4561V15.9068H1.15369L0.360582 23.8851L1.51514 24L2.31956 15.9065H5.69388L5.21698 20.0435L5.54246 20.2346C5.626 20.2839 6.9842 21.0643 9.57035 21.5873V23.9324H10.7307V21.7892C11.8197 21.9494 13.077 22.0552 14.5019 22.0552C15.9512 22.0552 17.2279 21.9462 18.3296 21.7811V23.9324H19.49V21.576C20.0345 21.4643 20.5215 21.3416 20.9552 21.2169L21.0855 21.2073L21.0834 21.1797C22.5983 20.7316 23.3975 20.2718 23.461 20.2343L23.7865 20.0432L23.3096 15.9062H26.7411L27.5458 23.9997L28.7003 23.8848L27.9072 15.9065H27.9153ZM1.30482 2.91221C1.572 2.88668 1.8325 2.96472 2.03962 3.13471C2.24675 3.3047 2.37555 3.54519 2.40194 3.81178L2.8481 8.32123C2.8745 8.58782 2.79531 8.8489 2.6256 9.05602C2.45561 9.26315 2.21513 9.39195 1.94853 9.41835L1.91227 9.42183L1.26885 2.91569L1.30482 2.91221ZM27.1124 9.41835C26.8455 9.39195 26.605 9.26315 26.4353 9.05602C26.2653 8.8489 26.1864 8.58782 26.2125 8.32123L26.6587 3.81178C26.6851 3.54519 26.8136 3.3047 27.021 3.13471C27.2281 2.96472 27.4886 2.8861 27.7558 2.91221L27.7918 2.91569L27.2125 8.77348L27.1483 9.42183L27.1124 9.41835ZM14.5022 1.16036C14.7421 1.16036 14.9373 1.35559 14.9373 1.59549C14.9373 1.75649 14.85 1.86238 14.7981 1.91111L14.5022 2.18844L14.2069 1.9114C14.1546 1.86238 14.067 1.75649 14.067 1.59549C14.067 1.35559 14.2623 1.16036 14.5022 1.16036ZM10.9393 6.41505C10.9393 4.6719 12.187 3.1965 13.9063 2.9067L14.5022 2.80633L15.0983 2.9067C16.8174 3.1965 18.0653 4.6719 18.0653 6.41505V6.89572H10.9393V6.41505ZM2.30592 14.7461V13.9243H5.92247L5.82761 14.7461H2.30592ZM20.997 19.9857L20.6138 14.7119L19.4563 14.7957L19.8564 20.3005C18.5069 20.6236 16.7158 20.8952 14.5022 20.8952C12.3778 20.8952 10.6463 20.6448 9.3171 20.3391L9.70844 14.7946L8.55098 14.7131L8.17531 20.038C7.3648 19.794 6.78839 19.5532 6.45943 19.3998L7.76715 8.05608H21.2375L22.5449 19.3998C22.2392 19.5422 21.7179 19.7603 20.997 19.9857ZM23.0816 13.9243H26.755V14.7461H23.1764L23.0816 13.9243Z" fill="#070707"/>
<path d="M20.2711 9.1748H8.61035V10.3352H20.2711V9.1748Z" fill="#070707"/>
</svg>
