<svg width="34" height="16" viewBox="0 0 34 16" fill="none" xmlns="http://www.w3.org/2000/svg">
<path d="M19.3683 14.3158H17.6842V5.05325H25.2627C25.7284 5.05325 26.1048 4.67601 26.1048 4.21119C26.1048 3.74638 25.7284 3.36914 25.2627 3.36914H8.42164C7.95599 3.36914 7.57959 3.74638 7.57959 4.21119C7.57959 4.67601 7.95599 5.05325 8.42164 5.05325H16.0001V14.3158H14.316C13.8504 14.3158 13.474 14.6931 13.474 15.1579C13.474 15.6227 13.8504 15.9999 14.316 15.9999H19.3683C19.834 15.9999 20.2104 15.6227 20.2104 15.1579C20.2104 14.6931 19.834 14.3158 19.3683 14.3158Z" fill="#070707"/>
<path d="M9.00622 8.79076C8.99022 8.73518 8.97254 8.68382 8.94559 8.6333C8.92033 8.5853 8.89086 8.5432 8.85718 8.5011C8.82349 8.45984 8.78981 8.42194 8.74855 8.38657C8.70645 8.35121 8.66266 8.32342 8.61551 8.29732C8.56919 8.27121 8.52372 8.24932 8.47152 8.23248C8.41847 8.2148 8.36373 8.20553 8.30732 8.1988C8.27448 8.19459 8.24585 8.17943 8.21216 8.17943H3.60108L1.65846 0.632101C1.54225 0.180761 1.07912 -0.0886965 0.632836 0.0266648C0.182338 0.142868 -0.0888035 0.601787 0.0265578 1.05144L2.08706 9.05769L1.06481 15.0144C0.985657 15.4725 1.29301 15.9078 1.75193 15.987C1.80161 15.9962 1.8496 15.9996 1.89676 15.9996C2.3001 15.9996 2.65545 15.7099 2.72534 15.2998L3.65749 9.86438H7.50063L8.43278 15.2998C8.50436 15.7099 8.86054 15.9996 9.26305 15.9996C9.3102 15.9996 9.3582 15.9962 9.4062 15.9878C9.86512 15.9086 10.1725 15.4733 10.0933 15.0152L9.04074 8.88002C9.03569 8.84718 9.01548 8.82276 9.00622 8.79076Z" fill="#070707"/>
<path d="M33.0508 0.0276414C32.6079 -0.08772 32.1414 0.181737 32.0252 0.633078L30.0825 8.18041H25.4731C25.4395 8.18041 25.4108 8.19556 25.378 8.19977C25.3224 8.20651 25.2694 8.21493 25.2172 8.23262C25.1633 8.2503 25.1144 8.27303 25.0656 8.30082C25.021 8.32608 24.9797 8.35219 24.9418 8.38503C24.8963 8.42124 24.8601 8.46081 24.8248 8.50544C24.7919 8.54586 24.7641 8.58543 24.7389 8.63175C24.7119 8.68311 24.6934 8.73616 24.6774 8.79174C24.6681 8.82289 24.6488 8.84731 24.6429 8.88015L23.5903 15.0154C23.5112 15.4734 23.8185 15.9088 24.2774 15.9879C24.3254 15.9964 24.3734 15.9997 24.4206 15.9997C24.8239 15.9997 25.1793 15.7101 25.2492 15.3L26.1813 9.86452H30.0244L30.9566 15.3C31.029 15.7101 31.3852 15.9997 31.7877 15.9997C31.8349 15.9997 31.8828 15.9964 31.9308 15.9879C32.3898 15.9088 32.6971 15.4734 32.618 15.0154L31.5957 9.05867L33.6562 1.05242C33.7724 0.601923 33.5013 0.143003 33.0508 0.0276414Z" fill="#070707"/>
</svg>
